<mxfile host="app.diagrams.net" agent="Mozilla/5.0 (Windows NT 10.0; Win64; x64) AppleWebKit/537.36 (KHTML, like Gecko) Chrome/140.0.0.0 Safari/537.36 Edg/140.0.0.0" version="28.2.5">
  <diagram name="Page-1" id="kCVxv0SRmcAVLS0F90yO">
    <mxGraphModel dx="3685" dy="3678" grid="1" gridSize="10" guides="1" tooltips="1" connect="1" arrows="1" fold="1" page="1" pageScale="1" pageWidth="850" pageHeight="1100" math="0" shadow="0">
      <root>
        <mxCell id="0" />
        <mxCell id="1" parent="0" />
        <UserObject label="" plantUmlData="{&quot;data&quot;:&quot;@startuml\ntitle Sequence Diagram - Game Sonnet (User + Admin)\n\nactor User\nactor Admin\n\nparticipant \&quot;React UI\\n(Home, AddYours, YourSuggestion, GamePage, Login, Signup, Admin)\&quot; as UI\nparticipant \&quot;Express Backend\&quot; as Backend\nparticipant \&quot;RAWG API\&quot; as RAWG\ndatabase \&quot;MongoDB Atlas\&quot; as DB\n\n== Home Page Flow ==\nUser -&gt; UI : Open Home Page\nUI -&gt; RAWG : Fetch Trending Games\nUI -&gt; DB : Fetch Suggested Games\nUI -&gt; User : Display Home with games\n\n== Login/Signup Flow ==\nUser -&gt; UI : Click Login/Signup\nUI -&gt; Backend : Send credentials\nBackend -&gt; DB : Validate / Save User\nDB -&gt; Backend : Return success\nBackend -&gt; UI : Auth success\nUI -&gt; User : Show logged-in state\n\n== Add Game Flow ==\nUser -&gt; UI : Add Yours (enter game name)\nUI -&gt; Backend : Check game in DB\nBackend -&gt; DB : Game exists?\nalt Game already exists\n    DB -&gt; Backend : Return existing game\n    Backend -&gt; DB : Update addedBy field with username\n    DB -&gt; Backend : Confirm update\nelse Game does not exist\n    Backend -&gt; RAWG : Request Game Details\n    alt RAWG returns data\n        RAWG -&gt; Backend : Return Game Data\n        Backend -&gt; DB : Save to PendingGames\n        DB -&gt; Backend : Confirm insert\n    else RAWG does not return data\n        UI -&gt; User : Prompt manual submission\n        User -&gt; UI : Enter game details manually\n        UI -&gt; Backend : Save manual game to PendingGames\n        Backend -&gt; DB : Insert Pending Game\n        DB -&gt; Backend : Confirm insert\n    end\nend\nBackend -&gt; UI : Toast \&quot;Game \&quot;${gameData.name}\&quot; submitted for admin approval!\&quot;\n\n== Admin Approval Flow (if isAdmin) ==\nAdmin -&gt; UI : Visit /admin\nUI -&gt; Backend : Request Pending Games\nBackend -&gt; DB : Return Pending Games\nDB -&gt; Backend : Pending Games\nBackend -&gt; UI : Show pending list\nAdmin -&gt; UI : Approve/Edit/Reject game\nUI -&gt; Backend : Send update\nBackend -&gt; DB : If approved → add to Games schema &amp; remove status\nBackend -&gt; DB : If rejected → set status = \&quot;rejected\&quot;\nDB -&gt; Backend : Confirm update\nBackend -&gt; UI : Show action result\nUI -&gt; Admin : Display update result\n\n== Game Details &amp; Reviews Flow ==\nUser -&gt; UI : Select Game Card\nUI -&gt; RAWG : Fetch details if exists\nUI -&gt; DB : Fetch from DB if not in RAWG\nUI -&gt; User : Show details + reviews\n\nUser -&gt; UI : Submit review\nUI -&gt; Backend : Send review\nBackend -&gt; DB : Save review\nDB -&gt; Backend : O K\nBackend -&gt; UI : Return updated reviews\nUI -&gt; User : Show updated reviews\n\n@enduml\n&quot;,&quot;format&quot;:&quot;svg&quot;}" id="tFfs78tfwkmpfjwE8nv--1">
          <mxCell style="shape=image;noLabel=1;verticalAlign=top;aspect=fixed;imageAspect=0;image=data:image/svg+xml,PHN2ZyB4bWxucz0iaHR0cDovL3d3dy53My5vcmcvMjAwMC9zdmciIHhtbG5zOnhsaW5rPSJodHRwOi8vd3d3LnczLm9yZy8xOTk5L3hsaW5rIiBjb250ZW50U3R5bGVUeXBlPSJ0ZXh0L2NzcyIgZGF0YS1kaWFncmFtLXR5cGU9IlNFUVVFTkNFIiBoZWlnaHQ9IjE4NTJweCIgcHJlc2VydmVBc3BlY3RSYXRpbz0ibm9uZSIgc3R5bGU9IndpZHRoOjEyMDRweDtoZWlnaHQ6MTg1MnB4O2JhY2tncm91bmQ6I0ZGRkZGRjsiIHZlcnNpb249IjEuMSIgdmlld0JveD0iMCAwIDEyMDQgMTg1MiIgd2lkdGg9IjEyMDRweCIgem9vbUFuZFBhbj0ibWFnbmlmeSI+PHRpdGxlPlNlcXVlbmNlIERpYWdyYW0gLSBHYW1lIFNvbm5ldCAoVXNlciArIEFkbWluKTwvdGl0bGU+PGRlZnMvPjxnPjx0ZXh0IGZpbGw9IiMwMDAwMDAiIGZvbnQtZmFtaWx5PSJzYW5zLXNlcmlmIiBmb250LXNpemU9IjE0IiBmb250LXdlaWdodD0iYm9sZCIgbGVuZ3RoQWRqdXN0PSJzcGFjaW5nIiB0ZXh0TGVuZ3RoPSIzMTUiIHg9IjQ0MC43NSIgeT0iMjguMjM0NCI+U2VxdWVuY2UgRGlhZ3JhbSAtIEdhbWUgU29ubmV0IChVc2VyICsgQWRtaW4pPC90ZXh0PjxyZWN0IGZpbGw9Im5vbmUiIGhlaWdodD0iNDA4LjM0MzgiIHN0eWxlPSJzdHJva2U6IzAwMDAwMDtzdHJva2Utd2lkdGg6MS41OyIgd2lkdGg9IjExNzcuNSIgeD0iMTAiIHk9IjYyMS41OTM4Ii8+PHJlY3QgZmlsbD0ibm9uZSIgaGVpZ2h0PSIyNTMiIHN0eWxlPSJzdHJva2U6IzAwMDAwMDtzdHJva2Utd2lkdGg6MS41OyIgd2lkdGg9IjExNTcuNSIgeD0iMjAiIHk9Ijc2OS45Mzc1Ii8+PGc+PHRpdGxlPlVzZXI8L3RpdGxlPjxyZWN0IGZpbGw9IiMwMDAwMDAiIGZpbGwtb3BhY2l0eT0iMC4wMDAwMCIgaGVpZ2h0PSIxNjU2LjgyMDMiIHdpZHRoPSI4IiB4PSI0MyIgeT0iMTE1Ljk2ODgiLz48bGluZSBzdHlsZT0ic3Ryb2tlOiMxODE4MTg7c3Ryb2tlLXdpZHRoOjAuNTtzdHJva2UtZGFzaGFycmF5OjUuMCw1LjA7IiB4MT0iNDciIHgyPSI0NyIgeTE9IjExNS45Njg4IiB5Mj0iMTc3Mi43ODkxIi8+PC9nPjxnPjx0aXRsZT5BZG1pbjwvdGl0bGU+PHJlY3QgZmlsbD0iIzAwMDAwMCIgZmlsbC1vcGFjaXR5PSIwLjAwMDAwIiBoZWlnaHQ9IjE2NTYuODIwMyIgd2lkdGg9IjgiIHg9IjkwLjUiIHk9IjExNS45Njg4Ii8+PGxpbmUgc3R5bGU9InN0cm9rZTojMTgxODE4O3N0cm9rZS13aWR0aDowLjU7c3Ryb2tlLWRhc2hhcnJheTo1LjAsNS4wOyIgeDE9Ijk0IiB4Mj0iOTQiIHkxPSIxMTUuOTY4OCIgeTI9IjE3NzIuNzg5MSIvPjwvZz48Zz48dGl0bGU+UmVhY3QgVUk8L3RpdGxlPjxyZWN0IGZpbGw9IiMwMDAwMDAiIGZpbGwtb3BhY2l0eT0iMC4wMDAwMCIgaGVpZ2h0PSIxNjU2LjgyMDMiIHdpZHRoPSI4IiB4PSIzNTIiIHk9IjExNS45Njg4Ii8+PGxpbmUgc3R5bGU9InN0cm9rZTojMTgxODE4O3N0cm9rZS13aWR0aDowLjU7c3Ryb2tlLWRhc2hhcnJheTo1LjAsNS4wOyIgeDE9IjM1NiIgeDI9IjM1NiIgeTE9IjExNS45Njg4IiB5Mj0iMTc3Mi43ODkxIi8+PC9nPjxnPjx0aXRsZT5FeHByZXNzIEJhY2tlbmQ8L3RpdGxlPjxyZWN0IGZpbGw9IiMwMDAwMDAiIGZpbGwtb3BhY2l0eT0iMC4wMDAwMCIgaGVpZ2h0PSIxNjU2LjgyMDMiIHdpZHRoPSI4IiB4PSI3NzIuNSIgeT0iMTE1Ljk2ODgiLz48bGluZSBzdHlsZT0ic3Ryb2tlOiMxODE4MTg7c3Ryb2tlLXdpZHRoOjAuNTtzdHJva2UtZGFzaGFycmF5OjUuMCw1LjA7IiB4MT0iNzc2IiB4Mj0iNzc2IiB5MT0iMTE1Ljk2ODgiIHkyPSIxNzcyLjc4OTEiLz48L2c+PGc+PHRpdGxlPlJBV0cgQVBJPC90aXRsZT48cmVjdCBmaWxsPSIjMDAwMDAwIiBmaWxsLW9wYWNpdHk9IjAuMDAwMDAiIGhlaWdodD0iMTY1Ni44MjAzIiB3aWR0aD0iOCIgeD0iOTI2LjUiIHk9IjExNS45Njg4Ii8+PGxpbmUgc3R5bGU9InN0cm9rZTojMTgxODE4O3N0cm9rZS13aWR0aDowLjU7c3Ryb2tlLWRhc2hhcnJheTo1LjAsNS4wOyIgeDE9IjkzMC41IiB4Mj0iOTMwLjUiIHkxPSIxMTUuOTY4OCIgeTI9IjE3NzIuNzg5MSIvPjwvZz48Zz48dGl0bGU+TW9uZ29EQiBBdGxhczwvdGl0bGU+PHJlY3QgZmlsbD0iIzAwMDAwMCIgZmlsbC1vcGFjaXR5PSIwLjAwMDAwIiBoZWlnaHQ9IjE2NTYuODIwMyIgd2lkdGg9IjgiIHg9IjExMTUiIHk9IjExNS45Njg4Ii8+PGxpbmUgc3R5bGU9InN0cm9rZTojMTgxODE4O3N0cm9rZS13aWR0aDowLjU7c3Ryb2tlLWRhc2hhcnJheTo1LjAsNS4wOyIgeDE9IjExMTguNSIgeDI9IjExMTguNSIgeTE9IjExNS45Njg4IiB5Mj0iMTc3Mi43ODkxIi8+PC9nPjxnIGNsYXNzPSJwYXJ0aWNpcGFudCBwYXJ0aWNpcGFudC1oZWFkIiBkYXRhLXBhcnRpY2lwYW50PSJVc2VyIj48dGV4dCBmaWxsPSIjMDAwMDAwIiBmb250LWZhbWlseT0ic2Fucy1zZXJpZiIgZm9udC1zaXplPSIxNCIgbGVuZ3RoQWRqdXN0PSJzcGFjaW5nIiB0ZXh0TGVuZ3RoPSIyOCIgeD0iMzAiIHk9IjExNC4yMTg4Ij5Vc2VyPC90ZXh0PjxlbGxpcHNlIGN4PSI0NyIgY3k9IjQ5LjQ4NDQiIGZpbGw9IiNFMkUyRjAiIHJ4PSI4IiByeT0iOCIgc3R5bGU9InN0cm9rZTojMTgxODE4O3N0cm9rZS13aWR0aDowLjU7Ii8+PHBhdGggZD0iTTQ3LDU3LjQ4NDQgTDQ3LDg0LjQ4NDQgTTM0LDY1LjQ4NDQgTDYwLDY1LjQ4NDQgTTQ3LDg0LjQ4NDQgTDM0LDk5LjQ4NDQgTTQ3LDg0LjQ4NDQgTDYwLDk5LjQ4NDQiIGZpbGw9Im5vbmUiIHN0eWxlPSJzdHJva2U6IzE4MTgxODtzdHJva2Utd2lkdGg6MC41OyIvPjwvZz48ZyBjbGFzcz0icGFydGljaXBhbnQgcGFydGljaXBhbnQtdGFpbCIgZGF0YS1wYXJ0aWNpcGFudD0iVXNlciI+PHRleHQgZmlsbD0iIzAwMDAwMCIgZm9udC1mYW1pbHk9InNhbnMtc2VyaWYiIGZvbnQtc2l6ZT0iMTQiIGxlbmd0aEFkanVzdD0ic3BhY2luZyIgdGV4dExlbmd0aD0iMjgiIHg9IjMwIiB5PSIxNzg1LjAyMzQiPlVzZXI8L3RleHQ+PGVsbGlwc2UgY3g9IjQ3IiBjeT0iMTc5NS4yNzM0IiBmaWxsPSIjRTJFMkYwIiByeD0iOCIgcnk9IjgiIHN0eWxlPSJzdHJva2U6IzE4MTgxODtzdHJva2Utd2lkdGg6MC41OyIvPjxwYXRoIGQ9Ik00NywxODAzLjI3MzQgTDQ3LDE4MzAuMjczNCBNMzQsMTgxMS4yNzM0IEw2MCwxODExLjI3MzQgTTQ3LDE4MzAuMjczNCBMMzQsMTg0NS4yNzM0IE00NywxODMwLjI3MzQgTDYwLDE4NDUuMjczNCIgZmlsbD0ibm9uZSIgc3R5bGU9InN0cm9rZTojMTgxODE4O3N0cm9rZS13aWR0aDowLjU7Ii8+PC9nPjxnIGNsYXNzPSJwYXJ0aWNpcGFudCBwYXJ0aWNpcGFudC1oZWFkIiBkYXRhLXBhcnRpY2lwYW50PSJBZG1pbiI+PHRleHQgZmlsbD0iIzAwMDAwMCIgZm9udC1mYW1pbHk9InNhbnMtc2VyaWYiIGZvbnQtc2l6ZT0iMTQiIGxlbmd0aEFkanVzdD0ic3BhY2luZyIgdGV4dExlbmd0aD0iMzUiIHg9Ijc0IiB5PSIxMTQuMjE4OCI+QWRtaW48L3RleHQ+PGVsbGlwc2UgY3g9Ijk0LjUiIGN5PSI0OS40ODQ0IiBmaWxsPSIjRTJFMkYwIiByeD0iOCIgcnk9IjgiIHN0eWxlPSJzdHJva2U6IzE4MTgxODtzdHJva2Utd2lkdGg6MC41OyIvPjxwYXRoIGQ9Ik05NC41LDU3LjQ4NDQgTDk0LjUsODQuNDg0NCBNODEuNSw2NS40ODQ0IEwxMDcuNSw2NS40ODQ0IE05NC41LDg0LjQ4NDQgTDgxLjUsOTkuNDg0NCBNOTQuNSw4NC40ODQ0IEwxMDcuNSw5OS40ODQ0IiBmaWxsPSJub25lIiBzdHlsZT0ic3Ryb2tlOiMxODE4MTg7c3Ryb2tlLXdpZHRoOjAuNTsiLz48L2c+PGcgY2xhc3M9InBhcnRpY2lwYW50IHBhcnRpY2lwYW50LXRhaWwiIGRhdGEtcGFydGljaXBhbnQ9IkFkbWluIj48dGV4dCBmaWxsPSIjMDAwMDAwIiBmb250LWZhbWlseT0ic2Fucy1zZXJpZiIgZm9udC1zaXplPSIxNCIgbGVuZ3RoQWRqdXN0PSJzcGFjaW5nIiB0ZXh0TGVuZ3RoPSIzNSIgeD0iNzQiIHk9IjE3ODUuMDIzNCI+QWRtaW48L3RleHQ+PGVsbGlwc2UgY3g9Ijk0LjUiIGN5PSIxNzk1LjI3MzQiIGZpbGw9IiNFMkUyRjAiIHJ4PSI4IiByeT0iOCIgc3R5bGU9InN0cm9rZTojMTgxODE4O3N0cm9rZS13aWR0aDowLjU7Ii8+PHBhdGggZD0iTTk0LjUsMTgwMy4yNzM0IEw5NC41LDE4MzAuMjczNCBNODEuNSwxODExLjI3MzQgTDEwNy41LDE4MTEuMjczNCBNOTQuNSwxODMwLjI3MzQgTDgxLjUsMTg0NS4yNzM0IE05NC41LDE4MzAuMjczNCBMMTA3LjUsMTg0NS4yNzM0IiBmaWxsPSJub25lIiBzdHlsZT0ic3Ryb2tlOiMxODE4MTg7c3Ryb2tlLXdpZHRoOjAuNTsiLz48L2c+PGcgY2xhc3M9InBhcnRpY2lwYW50IHBhcnRpY2lwYW50LWhlYWQiIGRhdGEtcGFydGljaXBhbnQ9IlVJIj48cmVjdCBmaWxsPSIjRTJFMkYwIiBoZWlnaHQ9IjQzLjk2ODgiIHJ4PSIyLjUiIHJ5PSIyLjUiIHN0eWxlPSJzdHJva2U6IzE4MTgxODtzdHJva2Utd2lkdGg6MC41OyIgd2lkdGg9IjQ2MiIgeD0iMTI1IiB5PSI3MSIvPjx0ZXh0IGZpbGw9IiMwMDAwMDAiIGZvbnQtZmFtaWx5PSJzYW5zLXNlcmlmIiBmb250LXNpemU9IjE0IiBsZW5ndGhBZGp1c3Q9InNwYWNpbmciIHRleHRMZW5ndGg9IjU2IiB4PSIzMjgiIHk9IjkxLjIzNDQiPlJlYWN0IFVJPC90ZXh0Pjx0ZXh0IGZpbGw9IiMwMDAwMDAiIGZvbnQtZmFtaWx5PSJzYW5zLXNlcmlmIiBmb250LXNpemU9IjE0IiBsZW5ndGhBZGp1c3Q9InNwYWNpbmciIHRleHRMZW5ndGg9IjQ0OCIgeD0iMTMyIiB5PSIxMDYuMjE4OCI+KEhvbWUsIEFkZFlvdXJzLCBZb3VyU3VnZ2VzdGlvbiwgR2FtZVBhZ2UsIExvZ2luLCBTaWdudXAsIEFkbWluKTwvdGV4dD48L2c+PGcgY2xhc3M9InBhcnRpY2lwYW50IHBhcnRpY2lwYW50LXRhaWwiIGRhdGEtcGFydGljaXBhbnQ9IlVJIj48cmVjdCBmaWxsPSIjRTJFMkYwIiBoZWlnaHQ9IjQzLjk2ODgiIHJ4PSIyLjUiIHJ5PSIyLjUiIHN0eWxlPSJzdHJva2U6IzE4MTgxODtzdHJva2Utd2lkdGg6MC41OyIgd2lkdGg9IjQ2MiIgeD0iMTI1IiB5PSIxNzcxLjc4OTEiLz48dGV4dCBmaWxsPSIjMDAwMDAwIiBmb250LWZhbWlseT0ic2Fucy1zZXJpZiIgZm9udC1zaXplPSIxNCIgbGVuZ3RoQWRqdXN0PSJzcGFjaW5nIiB0ZXh0TGVuZ3RoPSI1NiIgeD0iMzI4IiB5PSIxNzkyLjAyMzQiPlJlYWN0IFVJPC90ZXh0Pjx0ZXh0IGZpbGw9IiMwMDAwMDAiIGZvbnQtZmFtaWx5PSJzYW5zLXNlcmlmIiBmb250LXNpemU9IjE0IiBsZW5ndGhBZGp1c3Q9InNwYWNpbmciIHRleHRMZW5ndGg9IjQ0OCIgeD0iMTMyIiB5PSIxODA3LjAwNzgiPihIb21lLCBBZGRZb3VycywgWW91clN1Z2dlc3Rpb24sIEdhbWVQYWdlLCBMb2dpbiwgU2lnbnVwLCBBZG1pbik8L3RleHQ+PC9nPjxnIGNsYXNzPSJwYXJ0aWNpcGFudCBwYXJ0aWNpcGFudC1oZWFkIiBkYXRhLXBhcnRpY2lwYW50PSJCYWNrZW5kIj48cmVjdCBmaWxsPSIjRTJFMkYwIiBoZWlnaHQ9IjI4Ljk4NDQiIHJ4PSIyLjUiIHJ5PSIyLjUiIHN0eWxlPSJzdHJva2U6IzE4MTgxODtzdHJva2Utd2lkdGg6MC41OyIgd2lkdGg9IjExOSIgeD0iNzE3IiB5PSI4NS45ODQ0Ii8+PHRleHQgZmlsbD0iIzAwMDAwMCIgZm9udC1mYW1pbHk9InNhbnMtc2VyaWYiIGZvbnQtc2l6ZT0iMTQiIGxlbmd0aEFkanVzdD0ic3BhY2luZyIgdGV4dExlbmd0aD0iMTA1IiB4PSI3MjQiIHk9IjEwNi4yMTg4Ij5FeHByZXNzIEJhY2tlbmQ8L3RleHQ+PC9nPjxnIGNsYXNzPSJwYXJ0aWNpcGFudCBwYXJ0aWNpcGFudC10YWlsIiBkYXRhLXBhcnRpY2lwYW50PSJCYWNrZW5kIj48cmVjdCBmaWxsPSIjRTJFMkYwIiBoZWlnaHQ9IjI4Ljk4NDQiIHJ4PSIyLjUiIHJ5PSIyLjUiIHN0eWxlPSJzdHJva2U6IzE4MTgxODtzdHJva2Utd2lkdGg6MC41OyIgd2lkdGg9IjExOSIgeD0iNzE3IiB5PSIxNzcxLjc4OTEiLz48dGV4dCBmaWxsPSIjMDAwMDAwIiBmb250LWZhbWlseT0ic2Fucy1zZXJpZiIgZm9udC1zaXplPSIxNCIgbGVuZ3RoQWRqdXN0PSJzcGFjaW5nIiB0ZXh0TGVuZ3RoPSIxMDUiIHg9IjcyNCIgeT0iMTc5Mi4wMjM0Ij5FeHByZXNzIEJhY2tlbmQ8L3RleHQ+PC9nPjxnIGNsYXNzPSJwYXJ0aWNpcGFudCBwYXJ0aWNpcGFudC1oZWFkIiBkYXRhLXBhcnRpY2lwYW50PSJSQVdHIj48cmVjdCBmaWxsPSIjRTJFMkYwIiBoZWlnaHQ9IjI4Ljk4NDQiIHJ4PSIyLjUiIHJ5PSIyLjUiIHN0eWxlPSJzdHJva2U6IzE4MTgxODtzdHJva2Utd2lkdGg6MC41OyIgd2lkdGg9IjcwIiB4PSI4OTUuNSIgeT0iODUuOTg0NCIvPjx0ZXh0IGZpbGw9IiMwMDAwMDAiIGZvbnQtZmFtaWx5PSJzYW5zLXNlcmlmIiBmb250LXNpemU9IjE0IiBsZW5ndGhBZGp1c3Q9InNwYWNpbmciIHRleHRMZW5ndGg9IjU2IiB4PSI5MDIuNSIgeT0iMTA2LjIxODgiPlJBV0cgQVBJPC90ZXh0PjwvZz48ZyBjbGFzcz0icGFydGljaXBhbnQgcGFydGljaXBhbnQtdGFpbCIgZGF0YS1wYXJ0aWNpcGFudD0iUkFXRyI+PHJlY3QgZmlsbD0iI0UyRTJGMCIgaGVpZ2h0PSIyOC45ODQ0IiByeD0iMi41IiByeT0iMi41IiBzdHlsZT0ic3Ryb2tlOiMxODE4MTg7c3Ryb2tlLXdpZHRoOjAuNTsiIHdpZHRoPSI3MCIgeD0iODk1LjUiIHk9IjE3NzEuNzg5MSIvPjx0ZXh0IGZpbGw9IiMwMDAwMDAiIGZvbnQtZmFtaWx5PSJzYW5zLXNlcmlmIiBmb250LXNpemU9IjE0IiBsZW5ndGhBZGp1c3Q9InNwYWNpbmciIHRleHRMZW5ndGg9IjU2IiB4PSI5MDIuNSIgeT0iMTc5Mi4wMjM0Ij5SQVdHIEFQSTwvdGV4dD48L2c+PGcgY2xhc3M9InBhcnRpY2lwYW50IHBhcnRpY2lwYW50LWhlYWQiIGRhdGEtcGFydGljaXBhbnQ9IkRCIj48dGV4dCBmaWxsPSIjMDAwMDAwIiBmb250LWZhbWlseT0ic2Fucy1zZXJpZiIgZm9udC1zaXplPSIxNCIgbGVuZ3RoQWRqdXN0PSJzcGFjaW5nIiB0ZXh0TGVuZ3RoPSI5MSIgeD0iMTA3MC41IiB5PSIxMTQuMjE4OCI+TW9uZ29EQiBBdGxhczwvdGV4dD48cGF0aCBkPSJNMTEwMSw2NC45ODQ0IEMxMTAxLDU0Ljk4NDQgMTExOSw1NC45ODQ0IDExMTksNTQuOTg0NCBDMTExOSw1NC45ODQ0IDExMzcsNTQuOTg0NCAxMTM3LDY0Ljk4NDQgTDExMzcsOTAuOTg0NCBDMTEzNywxMDAuOTg0NCAxMTE5LDEwMC45ODQ0IDExMTksMTAwLjk4NDQgQzExMTksMTAwLjk4NDQgMTEwMSwxMDAuOTg0NCAxMTAxLDkwLjk4NDQgTDExMDEsNjQuOTg0NCIgZmlsbD0iI0UyRTJGMCIgc3R5bGU9InN0cm9rZTojMTgxODE4O3N0cm9rZS13aWR0aDoxLjU7Ii8+PHBhdGggZD0iTTExMDEsNjQuOTg0NCBDMTEwMSw3NC45ODQ0IDExMTksNzQuOTg0NCAxMTE5LDc0Ljk4NDQgQzExMTksNzQuOTg0NCAxMTM3LDc0Ljk4NDQgMTEzNyw2NC45ODQ0IiBmaWxsPSJub25lIiBzdHlsZT0ic3Ryb2tlOiMxODE4MTg7c3Ryb2tlLXdpZHRoOjEuNTsiLz48L2c+PGcgY2xhc3M9InBhcnRpY2lwYW50IHBhcnRpY2lwYW50LXRhaWwiIGRhdGEtcGFydGljaXBhbnQ9IkRCIj48dGV4dCBmaWxsPSIjMDAwMDAwIiBmb250LWZhbWlseT0ic2Fucy1zZXJpZiIgZm9udC1zaXplPSIxNCIgbGVuZ3RoQWRqdXN0PSJzcGFjaW5nIiB0ZXh0TGVuZ3RoPSI5MSIgeD0iMTA3MC41IiB5PSIxNzg1LjAyMzQiPk1vbmdvREIgQXRsYXM8L3RleHQ+PHBhdGggZD0iTTExMDEsMTc5Ni43NzM0IEMxMTAxLDE3ODYuNzczNCAxMTE5LDE3ODYuNzczNCAxMTE5LDE3ODYuNzczNCBDMTExOSwxNzg2Ljc3MzQgMTEzNywxNzg2Ljc3MzQgMTEzNywxNzk2Ljc3MzQgTDExMzcsMTgyMi43NzM0IEMxMTM3LDE4MzIuNzczNCAxMTE5LDE4MzIuNzczNCAxMTE5LDE4MzIuNzczNCBDMTExOSwxODMyLjc3MzQgMTEwMSwxODMyLjc3MzQgMTEwMSwxODIyLjc3MzQgTDExMDEsMTc5Ni43NzM0IiBmaWxsPSIjRTJFMkYwIiBzdHlsZT0ic3Ryb2tlOiMxODE4MTg7c3Ryb2tlLXdpZHRoOjEuNTsiLz48cGF0aCBkPSJNMTEwMSwxNzk2Ljc3MzQgQzExMDEsMTgwNi43NzM0IDExMTksMTgwNi43NzM0IDExMTksMTgwNi43NzM0IEMxMTE5LDE4MDYuNzczNCAxMTM3LDE4MDYuNzczNCAxMTM3LDE3OTYuNzczNCIgZmlsbD0ibm9uZSIgc3R5bGU9InN0cm9rZTojMTgxODE4O3N0cm9rZS13aWR0aDoxLjU7Ii8+PC9nPjxyZWN0IGZpbGw9IiNFRUVFRUUiIGhlaWdodD0iMyIgc3R5bGU9InN0cm9rZTojRUVFRUVFO3N0cm9rZS13aWR0aDoxOyIgd2lkdGg9IjExOTcuNSIgeD0iMCIgeT0iMTQ1LjkyNTgiLz48bGluZSBzdHlsZT0ic3Ryb2tlOiMwMDAwMDA7c3Ryb2tlLXdpZHRoOjE7IiB4MT0iMCIgeDI9IjExOTcuNSIgeTE9IjE0NS45MjU4IiB5Mj0iMTQ1LjkyNTgiLz48bGluZSBzdHlsZT0ic3Ryb2tlOiMwMDAwMDA7c3Ryb2tlLXdpZHRoOjE7IiB4MT0iMCIgeDI9IjExOTcuNSIgeTE9IjE0OC45MjU4IiB5Mj0iMTQ4LjkyNTgiLz48cmVjdCBmaWxsPSIjRUVFRUVFIiBoZWlnaHQ9IjIxLjkxNDEiIHN0eWxlPSJzdHJva2U6IzAwMDAwMDtzdHJva2Utd2lkdGg6MjsiIHdpZHRoPSIxMTEuNSIgeD0iNTQzIiB5PSIxMzUuOTY4OCIvPjx0ZXh0IGZpbGw9IiMwMDAwMDAiIGZvbnQtZmFtaWx5PSJzYW5zLXNlcmlmIiBmb250LXNpemU9IjEzIiBmb250LXdlaWdodD0iYm9sZCIgbGVuZ3RoQWRqdXN0PSJzcGFjaW5nIiB0ZXh0TGVuZ3RoPSI5MSIgeD0iNTQ5IiB5PSIxNTIuMjU3OCI+SG9tZSBQYWdlIEZsb3c8L3RleHQ+PGcgY2xhc3M9Im1lc3NhZ2UiIGRhdGEtcGFydGljaXBhbnQtMT0iVXNlciIgZGF0YS1wYXJ0aWNpcGFudC0yPSJVSSI+PHBvbHlnb24gZmlsbD0iIzE4MTgxOCIgcG9pbnRzPSIzNDQsMTgzLjc5NjksMzU0LDE4Ny43OTY5LDM0NCwxOTEuNzk2OSwzNDgsMTg3Ljc5NjkiIHN0eWxlPSJzdHJva2U6IzE4MTgxODtzdHJva2Utd2lkdGg6MTsiLz48bGluZSBzdHlsZT0ic3Ryb2tlOiMxODE4MTg7c3Ryb2tlLXdpZHRoOjE7IiB4MT0iNDciIHgyPSIzNTAiIHkxPSIxODcuNzk2OSIgeTI9IjE4Ny43OTY5Ii8+PHRleHQgZmlsbD0iIzAwMDAwMCIgZm9udC1mYW1pbHk9InNhbnMtc2VyaWYiIGZvbnQtc2l6ZT0iMTMiIGxlbmd0aEFkanVzdD0ic3BhY2luZyIgdGV4dExlbmd0aD0iOTEiIHg9IjU0IiB5PSIxODQuMTcxOSI+T3BlbiBIb21lIFBhZ2U8L3RleHQ+PC9nPjxnIGNsYXNzPSJtZXNzYWdlIiBkYXRhLXBhcnRpY2lwYW50LTE9IlVJIiBkYXRhLXBhcnRpY2lwYW50LTI9IlJBV0ciPjxwb2x5Z29uIGZpbGw9IiMxODE4MTgiIHBvaW50cz0iOTE4LjUsMjExLjcxMDksOTI4LjUsMjE1LjcxMDksOTE4LjUsMjE5LjcxMDksOTIyLjUsMjE1LjcxMDkiIHN0eWxlPSJzdHJva2U6IzE4MTgxODtzdHJva2Utd2lkdGg6MTsiLz48bGluZSBzdHlsZT0ic3Ryb2tlOiMxODE4MTg7c3Ryb2tlLXdpZHRoOjE7IiB4MT0iMzU2IiB4Mj0iOTI0LjUiIHkxPSIyMTUuNzEwOSIgeTI9IjIxNS43MTA5Ii8+PHRleHQgZmlsbD0iIzAwMDAwMCIgZm9udC1mYW1pbHk9InNhbnMtc2VyaWYiIGZvbnQtc2l6ZT0iMTMiIGxlbmd0aEFkanVzdD0ic3BhY2luZyIgdGV4dExlbmd0aD0iMTMwIiB4PSIzNjMiIHk9IjIxMi4wODU5Ij5GZXRjaCBUcmVuZGluZyBHYW1lczwvdGV4dD48L2c+PGcgY2xhc3M9Im1lc3NhZ2UiIGRhdGEtcGFydGljaXBhbnQtMT0iVUkiIGRhdGEtcGFydGljaXBhbnQtMj0iREIiPjxwb2x5Z29uIGZpbGw9IiMxODE4MTgiIHBvaW50cz0iMTEwNywyMzkuNjI1LDExMTcsMjQzLjYyNSwxMTA3LDI0Ny42MjUsMTExMSwyNDMuNjI1IiBzdHlsZT0ic3Ryb2tlOiMxODE4MTg7c3Ryb2tlLXdpZHRoOjE7Ii8+PGxpbmUgc3R5bGU9InN0cm9rZTojMTgxODE4O3N0cm9rZS13aWR0aDoxOyIgeDE9IjM1NiIgeDI9IjExMTMiIHkxPSIyNDMuNjI1IiB5Mj0iMjQzLjYyNSIvPjx0ZXh0IGZpbGw9IiMwMDAwMDAiIGZvbnQtZmFtaWx5PSJzYW5zLXNlcmlmIiBmb250LXNpemU9IjEzIiBsZW5ndGhBZGp1c3Q9InNwYWNpbmciIHRleHRMZW5ndGg9IjEzNi41IiB4PSIzNjMiIHk9IjI0MCI+RmV0Y2ggU3VnZ2VzdGVkIEdhbWVzPC90ZXh0PjwvZz48ZyBjbGFzcz0ibWVzc2FnZSIgZGF0YS1wYXJ0aWNpcGFudC0xPSJVSSIgZGF0YS1wYXJ0aWNpcGFudC0yPSJVc2VyIj48cG9seWdvbiBmaWxsPSIjMTgxODE4IiBwb2ludHM9IjU4LDI2Ny41MzkxLDQ4LDI3MS41MzkxLDU4LDI3NS41MzkxLDU0LDI3MS41MzkxIiBzdHlsZT0ic3Ryb2tlOiMxODE4MTg7c3Ryb2tlLXdpZHRoOjE7Ii8+PGxpbmUgc3R5bGU9InN0cm9rZTojMTgxODE4O3N0cm9rZS13aWR0aDoxOyIgeDE9IjUyIiB4Mj0iMzU1IiB5MT0iMjcxLjUzOTEiIHkyPSIyNzEuNTM5MSIvPjx0ZXh0IGZpbGw9IiMwMDAwMDAiIGZvbnQtZmFtaWx5PSJzYW5zLXNlcmlmIiBmb250LXNpemU9IjEzIiBsZW5ndGhBZGp1c3Q9InNwYWNpbmciIHRleHRMZW5ndGg9IjE0OS41IiB4PSI2NCIgeT0iMjY3LjkxNDEiPkRpc3BsYXkgSG9tZSB3aXRoIGdhbWVzPC90ZXh0PjwvZz48cmVjdCBmaWxsPSIjRUVFRUVFIiBoZWlnaHQ9IjMiIHN0eWxlPSJzdHJva2U6I0VFRUVFRTtzdHJva2Utd2lkdGg6MTsiIHdpZHRoPSIxMTk3LjUiIHg9IjAiIHk9IjI5OS40OTYxIi8+PGxpbmUgc3R5bGU9InN0cm9rZTojMDAwMDAwO3N0cm9rZS13aWR0aDoxOyIgeDE9IjAiIHgyPSIxMTk3LjUiIHkxPSIyOTkuNDk2MSIgeTI9IjI5OS40OTYxIi8+PGxpbmUgc3R5bGU9InN0cm9rZTojMDAwMDAwO3N0cm9rZS13aWR0aDoxOyIgeDE9IjAiIHgyPSIxMTk3LjUiIHkxPSIzMDIuNDk2MSIgeTI9IjMwMi40OTYxIi8+PHJlY3QgZmlsbD0iI0VFRUVFRSIgaGVpZ2h0PSIyMS45MTQxIiBzdHlsZT0ic3Ryb2tlOiMwMDAwMDA7c3Ryb2tlLXdpZHRoOjI7IiB3aWR0aD0iMTMxIiB4PSI1MzMuMjUiIHk9IjI4OS41MzkxIi8+PHRleHQgZmlsbD0iIzAwMDAwMCIgZm9udC1mYW1pbHk9InNhbnMtc2VyaWYiIGZvbnQtc2l6ZT0iMTMiIGZvbnQtd2VpZ2h0PSJib2xkIiBsZW5ndGhBZGp1c3Q9InNwYWNpbmciIHRleHRMZW5ndGg9IjExMC41IiB4PSI1MzkuMjUiIHk9IjMwNS44MjgxIj5Mb2dpbi9TaWdudXAgRmxvdzwvdGV4dD48ZyBjbGFzcz0ibWVzc2FnZSIgZGF0YS1wYXJ0aWNpcGFudC0xPSJVc2VyIiBkYXRhLXBhcnRpY2lwYW50LTI9IlVJIj48cG9seWdvbiBmaWxsPSIjMTgxODE4IiBwb2ludHM9IjM0NCwzMzcuMzY3MiwzNTQsMzQxLjM2NzIsMzQ0LDM0NS4zNjcyLDM0OCwzNDEuMzY3MiIgc3R5bGU9InN0cm9rZTojMTgxODE4O3N0cm9rZS13aWR0aDoxOyIvPjxsaW5lIHN0eWxlPSJzdHJva2U6IzE4MTgxODtzdHJva2Utd2lkdGg6MTsiIHgxPSI0NyIgeDI9IjM1MCIgeTE9IjM0MS4zNjcyIiB5Mj0iMzQxLjM2NzIiLz48dGV4dCBmaWxsPSIjMDAwMDAwIiBmb250LWZhbWlseT0ic2Fucy1zZXJpZiIgZm9udC1zaXplPSIxMyIgbGVuZ3RoQWRqdXN0PSJzcGFjaW5nIiB0ZXh0TGVuZ3RoPSIxMTciIHg9IjU0IiB5PSIzMzcuNzQyMiI+Q2xpY2sgTG9naW4vU2lnbnVwPC90ZXh0PjwvZz48ZyBjbGFzcz0ibWVzc2FnZSIgZGF0YS1wYXJ0aWNpcGFudC0xPSJVSSIgZGF0YS1wYXJ0aWNpcGFudC0yPSJCYWNrZW5kIj48cG9seWdvbiBmaWxsPSIjMTgxODE4IiBwb2ludHM9Ijc2NC41LDM2NS4yODEzLDc3NC41LDM2OS4yODEzLDc2NC41LDM3My4yODEzLDc2OC41LDM2OS4yODEzIiBzdHlsZT0ic3Ryb2tlOiMxODE4MTg7c3Ryb2tlLXdpZHRoOjE7Ii8+PGxpbmUgc3R5bGU9InN0cm9rZTojMTgxODE4O3N0cm9rZS13aWR0aDoxOyIgeDE9IjM1NiIgeDI9Ijc3MC41IiB5MT0iMzY5LjI4MTMiIHkyPSIzNjkuMjgxMyIvPjx0ZXh0IGZpbGw9IiMwMDAwMDAiIGZvbnQtZmFtaWx5PSJzYW5zLXNlcmlmIiBmb250LXNpemU9IjEzIiBsZW5ndGhBZGp1c3Q9InNwYWNpbmciIHRleHRMZW5ndGg9IjEwNCIgeD0iMzYzIiB5PSIzNjUuNjU2MyI+U2VuZCBjcmVkZW50aWFsczwvdGV4dD48L2c+PGcgY2xhc3M9Im1lc3NhZ2UiIGRhdGEtcGFydGljaXBhbnQtMT0iQmFja2VuZCIgZGF0YS1wYXJ0aWNpcGFudC0yPSJEQiI+PHBvbHlnb24gZmlsbD0iIzE4MTgxOCIgcG9pbnRzPSIxMTA3LDM5My4xOTUzLDExMTcsMzk3LjE5NTMsMTEwNyw0MDEuMTk1MywxMTExLDM5Ny4xOTUzIiBzdHlsZT0ic3Ryb2tlOiMxODE4MTg7c3Ryb2tlLXdpZHRoOjE7Ii8+PGxpbmUgc3R5bGU9InN0cm9rZTojMTgxODE4O3N0cm9rZS13aWR0aDoxOyIgeDE9Ijc3Ni41IiB4Mj0iMTExMyIgeTE9IjM5Ny4xOTUzIiB5Mj0iMzk3LjE5NTMiLz48dGV4dCBmaWxsPSIjMDAwMDAwIiBmb250LWZhbWlseT0ic2Fucy1zZXJpZiIgZm9udC1zaXplPSIxMyIgbGVuZ3RoQWRqdXN0PSJzcGFjaW5nIiB0ZXh0TGVuZ3RoPSIxMzAiIHg9Ijc4My41IiB5PSIzOTMuNTcwMyI+VmFsaWRhdGUgLyBTYXZlIFVzZXI8L3RleHQ+PC9nPjxnIGNsYXNzPSJtZXNzYWdlIiBkYXRhLXBhcnRpY2lwYW50LTE9IkRCIiBkYXRhLXBhcnRpY2lwYW50LTI9IkJhY2tlbmQiPjxwb2x5Z29uIGZpbGw9IiMxODE4MTgiIHBvaW50cz0iNzg3LjUsNDIxLjEwOTQsNzc3LjUsNDI1LjEwOTQsNzg3LjUsNDI5LjEwOTQsNzgzLjUsNDI1LjEwOTQiIHN0eWxlPSJzdHJva2U6IzE4MTgxODtzdHJva2Utd2lkdGg6MTsiLz48bGluZSBzdHlsZT0ic3Ryb2tlOiMxODE4MTg7c3Ryb2tlLXdpZHRoOjE7IiB4MT0iNzgxLjUiIHgyPSIxMTE4IiB5MT0iNDI1LjEwOTQiIHkyPSI0MjUuMTA5NCIvPjx0ZXh0IGZpbGw9IiMwMDAwMDAiIGZvbnQtZmFtaWx5PSJzYW5zLXNlcmlmIiBmb250LXNpemU9IjEzIiBsZW5ndGhBZGp1c3Q9InNwYWNpbmciIHRleHRMZW5ndGg9IjkxIiB4PSI3OTMuNSIgeT0iNDIxLjQ4NDQiPlJldHVybiBzdWNjZXNzPC90ZXh0PjwvZz48ZyBjbGFzcz0ibWVzc2FnZSIgZGF0YS1wYXJ0aWNpcGFudC0xPSJCYWNrZW5kIiBkYXRhLXBhcnRpY2lwYW50LTI9IlVJIj48cG9seWdvbiBmaWxsPSIjMTgxODE4IiBwb2ludHM9IjM2Nyw0NDkuMDIzNCwzNTcsNDUzLjAyMzQsMzY3LDQ1Ny4wMjM0LDM2Myw0NTMuMDIzNCIgc3R5bGU9InN0cm9rZTojMTgxODE4O3N0cm9rZS13aWR0aDoxOyIvPjxsaW5lIHN0eWxlPSJzdHJva2U6IzE4MTgxODtzdHJva2Utd2lkdGg6MTsiIHgxPSIzNjEiIHgyPSI3NzUuNSIgeTE9IjQ1My4wMjM0IiB5Mj0iNDUzLjAyMzQiLz48dGV4dCBmaWxsPSIjMDAwMDAwIiBmb250LWZhbWlseT0ic2Fucy1zZXJpZiIgZm9udC1zaXplPSIxMyIgbGVuZ3RoQWRqdXN0PSJzcGFjaW5nIiB0ZXh0TGVuZ3RoPSI3OCIgeD0iMzczIiB5PSI0NDkuMzk4NCI+QXV0aCBzdWNjZXNzPC90ZXh0PjwvZz48ZyBjbGFzcz0ibWVzc2FnZSIgZGF0YS1wYXJ0aWNpcGFudC0xPSJVSSIgZGF0YS1wYXJ0aWNpcGFudC0yPSJVc2VyIj48cG9seWdvbiBmaWxsPSIjMTgxODE4IiBwb2ludHM9IjU4LDQ3Ni45Mzc1LDQ4LDQ4MC45Mzc1LDU4LDQ4NC45Mzc1LDU0LDQ4MC45Mzc1IiBzdHlsZT0ic3Ryb2tlOiMxODE4MTg7c3Ryb2tlLXdpZHRoOjE7Ii8+PGxpbmUgc3R5bGU9InN0cm9rZTojMTgxODE4O3N0cm9rZS13aWR0aDoxOyIgeDE9IjUyIiB4Mj0iMzU1IiB5MT0iNDgwLjkzNzUiIHkyPSI0ODAuOTM3NSIvPjx0ZXh0IGZpbGw9IiMwMDAwMDAiIGZvbnQtZmFtaWx5PSJzYW5zLXNlcmlmIiBmb250LXNpemU9IjEzIiBsZW5ndGhBZGp1c3Q9InNwYWNpbmciIHRleHRMZW5ndGg9IjEzMCIgeD0iNjQiIHk9IjQ3Ny4zMTI1Ij5TaG93IGxvZ2dlZC1pbiBzdGF0ZTwvdGV4dD48L2c+PHJlY3QgZmlsbD0iI0VFRUVFRSIgaGVpZ2h0PSIzIiBzdHlsZT0ic3Ryb2tlOiNFRUVFRUU7c3Ryb2tlLXdpZHRoOjE7IiB3aWR0aD0iMTE5Ny41IiB4PSIwIiB5PSI1MDguODk0NSIvPjxsaW5lIHN0eWxlPSJzdHJva2U6IzAwMDAwMDtzdHJva2Utd2lkdGg6MTsiIHgxPSIwIiB4Mj0iMTE5Ny41IiB5MT0iNTA4Ljg5NDUiIHkyPSI1MDguODk0NSIvPjxsaW5lIHN0eWxlPSJzdHJva2U6IzAwMDAwMDtzdHJva2Utd2lkdGg6MTsiIHgxPSIwIiB4Mj0iMTE5Ny41IiB5MT0iNTExLjg5NDUiIHkyPSI1MTEuODk0NSIvPjxyZWN0IGZpbGw9IiNFRUVFRUUiIGhlaWdodD0iMjEuOTE0MSIgc3R5bGU9InN0cm9rZTojMDAwMDAwO3N0cm9rZS13aWR0aDoyOyIgd2lkdGg9IjEwNSIgeD0iNTQ2LjI1IiB5PSI0OTguOTM3NSIvPjx0ZXh0IGZpbGw9IiMwMDAwMDAiIGZvbnQtZmFtaWx5PSJzYW5zLXNlcmlmIiBmb250LXNpemU9IjEzIiBmb250LXdlaWdodD0iYm9sZCIgbGVuZ3RoQWRqdXN0PSJzcGFjaW5nIiB0ZXh0TGVuZ3RoPSI4NC41IiB4PSI1NTIuMjUiIHk9IjUxNS4yMjY2Ij5BZGQgR2FtZSBGbG93PC90ZXh0PjxnIGNsYXNzPSJtZXNzYWdlIiBkYXRhLXBhcnRpY2lwYW50LTE9IlVzZXIiIGRhdGEtcGFydGljaXBhbnQtMj0iVUkiPjxwb2x5Z29uIGZpbGw9IiMxODE4MTgiIHBvaW50cz0iMzQ0LDU0Ni43NjU2LDM1NCw1NTAuNzY1NiwzNDQsNTU0Ljc2NTYsMzQ4LDU1MC43NjU2IiBzdHlsZT0ic3Ryb2tlOiMxODE4MTg7c3Ryb2tlLXdpZHRoOjE7Ii8+PGxpbmUgc3R5bGU9InN0cm9rZTojMTgxODE4O3N0cm9rZS13aWR0aDoxOyIgeDE9IjQ3IiB4Mj0iMzUwIiB5MT0iNTUwLjc2NTYiIHkyPSI1NTAuNzY1NiIvPjx0ZXh0IGZpbGw9IiMwMDAwMDAiIGZvbnQtZmFtaWx5PSJzYW5zLXNlcmlmIiBmb250LXNpemU9IjEzIiBsZW5ndGhBZGp1c3Q9InNwYWNpbmciIHRleHRMZW5ndGg9IjE3NS41IiB4PSI1NCIgeT0iNTQ3LjE0MDYiPkFkZCBZb3VycyAoZW50ZXIgZ2FtZSBuYW1lKTwvdGV4dD48L2c+PGcgY2xhc3M9Im1lc3NhZ2UiIGRhdGEtcGFydGljaXBhbnQtMT0iVUkiIGRhdGEtcGFydGljaXBhbnQtMj0iQmFja2VuZCI+PHBvbHlnb24gZmlsbD0iIzE4MTgxOCIgcG9pbnRzPSI3NjQuNSw1NzQuNjc5Nyw3NzQuNSw1NzguNjc5Nyw3NjQuNSw1ODIuNjc5Nyw3NjguNSw1NzguNjc5NyIgc3R5bGU9InN0cm9rZTojMTgxODE4O3N0cm9rZS13aWR0aDoxOyIvPjxsaW5lIHN0eWxlPSJzdHJva2U6IzE4MTgxODtzdHJva2Utd2lkdGg6MTsiIHgxPSIzNTYiIHgyPSI3NzAuNSIgeTE9IjU3OC42Nzk3IiB5Mj0iNTc4LjY3OTciLz48dGV4dCBmaWxsPSIjMDAwMDAwIiBmb250LWZhbWlseT0ic2Fucy1zZXJpZiIgZm9udC1zaXplPSIxMyIgbGVuZ3RoQWRqdXN0PSJzcGFjaW5nIiB0ZXh0TGVuZ3RoPSIxMDQiIHg9IjM2MyIgeT0iNTc1LjA1NDciPkNoZWNrIGdhbWUgaW4gREI8L3RleHQ+PC9nPjxnIGNsYXNzPSJtZXNzYWdlIiBkYXRhLXBhcnRpY2lwYW50LTE9IkJhY2tlbmQiIGRhdGEtcGFydGljaXBhbnQtMj0iREIiPjxwb2x5Z29uIGZpbGw9IiMxODE4MTgiIHBvaW50cz0iMTEwNyw2MDIuNTkzOCwxMTE3LDYwNi41OTM4LDExMDcsNjEwLjU5MzgsMTExMSw2MDYuNTkzOCIgc3R5bGU9InN0cm9rZTojMTgxODE4O3N0cm9rZS13aWR0aDoxOyIvPjxsaW5lIHN0eWxlPSJzdHJva2U6IzE4MTgxODtzdHJva2Utd2lkdGg6MTsiIHgxPSI3NzYuNSIgeDI9IjExMTMiIHkxPSI2MDYuNTkzOCIgeTI9IjYwNi41OTM4Ii8+PHRleHQgZmlsbD0iIzAwMDAwMCIgZm9udC1mYW1pbHk9InNhbnMtc2VyaWYiIGZvbnQtc2l6ZT0iMTMiIGxlbmd0aEFkanVzdD0ic3BhY2luZyIgdGV4dExlbmd0aD0iNzgiIHg9Ijc4My41IiB5PSI2MDIuOTY4OCI+R2FtZSBleGlzdHM/PC90ZXh0PjwvZz48cGF0aCBkPSJNMTAsNjIxLjU5MzggTDc0LjUsNjIxLjU5MzggTDc0LjUsNjI3LjUwNzggTDY0LjUsNjM3LjUwNzggTDEwLDYzNy41MDc4IEwxMCw2MjEuNTkzOCIgZmlsbD0iI0VFRUVFRSIgc3R5bGU9InN0cm9rZTojMDAwMDAwO3N0cm9rZS13aWR0aDoxLjU7Ii8+PHJlY3QgZmlsbD0ibm9uZSIgaGVpZ2h0PSI0MDguMzQzOCIgc3R5bGU9InN0cm9rZTojMDAwMDAwO3N0cm9rZS13aWR0aDoxLjU7IiB3aWR0aD0iMTE3Ny41IiB4PSIxMCIgeT0iNjIxLjU5MzgiLz48dGV4dCBmaWxsPSIjMDAwMDAwIiBmb250LWZhbWlseT0ic2Fucy1zZXJpZiIgZm9udC1zaXplPSIxMyIgZm9udC13ZWlnaHQ9ImJvbGQiIGxlbmd0aEFkanVzdD0ic3BhY2luZyIgdGV4dExlbmd0aD0iMTkuNSIgeD0iMjUiIHk9IjYzNC44ODI4Ij5hbHQ8L3RleHQ+PHRleHQgZmlsbD0iIzAwMDAwMCIgZm9udC1mYW1pbHk9InNhbnMtc2VyaWYiIGZvbnQtc2l6ZT0iMTEiIGZvbnQtd2VpZ2h0PSJib2xkIiBsZW5ndGhBZGp1c3Q9InNwYWNpbmciIHRleHRMZW5ndGg9IjExNS41IiB4PSI4OS41IiB5PSI2MzMuOTkyMiI+W0dhbWUgYWxyZWFkeSBleGlzdHNdPC90ZXh0PjxnIGNsYXNzPSJtZXNzYWdlIiBkYXRhLXBhcnRpY2lwYW50LTE9IkRCIiBkYXRhLXBhcnRpY2lwYW50LTI9IkJhY2tlbmQiPjxwb2x5Z29uIGZpbGw9IiMxODE4MTgiIHBvaW50cz0iNzg3LjUsNjUzLjQyMTksNzc3LjUsNjU3LjQyMTksNzg3LjUsNjYxLjQyMTksNzgzLjUsNjU3LjQyMTkiIHN0eWxlPSJzdHJva2U6IzE4MTgxODtzdHJva2Utd2lkdGg6MTsiLz48bGluZSBzdHlsZT0ic3Ryb2tlOiMxODE4MTg7c3Ryb2tlLXdpZHRoOjE7IiB4MT0iNzgxLjUiIHgyPSIxMTE4IiB5MT0iNjU3LjQyMTkiIHkyPSI2NTcuNDIxOSIvPjx0ZXh0IGZpbGw9IiMwMDAwMDAiIGZvbnQtZmFtaWx5PSJzYW5zLXNlcmlmIiBmb250LXNpemU9IjEzIiBsZW5ndGhBZGp1c3Q9InNwYWNpbmciIHRleHRMZW5ndGg9IjEzMCIgeD0iNzkzLjUiIHk9IjY1My43OTY5Ij5SZXR1cm4gZXhpc3RpbmcgZ2FtZTwvdGV4dD48L2c+PGcgY2xhc3M9Im1lc3NhZ2UiIGRhdGEtcGFydGljaXBhbnQtMT0iQmFja2VuZCIgZGF0YS1wYXJ0aWNpcGFudC0yPSJEQiI+PHBvbHlnb24gZmlsbD0iIzE4MTgxOCIgcG9pbnRzPSIxMTA3LDY4MS4zMzU5LDExMTcsNjg1LjMzNTksMTEwNyw2ODkuMzM1OSwxMTExLDY4NS4zMzU5IiBzdHlsZT0ic3Ryb2tlOiMxODE4MTg7c3Ryb2tlLXdpZHRoOjE7Ii8+PGxpbmUgc3R5bGU9InN0cm9rZTojMTgxODE4O3N0cm9rZS13aWR0aDoxOyIgeDE9Ijc3Ni41IiB4Mj0iMTExMyIgeTE9IjY4NS4zMzU5IiB5Mj0iNjg1LjMzNTkiLz48dGV4dCBmaWxsPSIjMDAwMDAwIiBmb250LWZhbWlseT0ic2Fucy1zZXJpZiIgZm9udC1zaXplPSIxMyIgbGVuZ3RoQWRqdXN0PSJzcGFjaW5nIiB0ZXh0TGVuZ3RoPSIyMjEiIHg9Ijc4My41IiB5PSI2ODEuNzEwOSI+VXBkYXRlIGFkZGVkQnkgZmllbGQgd2l0aCB1c2VybmFtZTwvdGV4dD48L2c+PGcgY2xhc3M9Im1lc3NhZ2UiIGRhdGEtcGFydGljaXBhbnQtMT0iREIiIGRhdGEtcGFydGljaXBhbnQtMj0iQmFja2VuZCI+PHBvbHlnb24gZmlsbD0iIzE4MTgxOCIgcG9pbnRzPSI3ODcuNSw3MDkuMjUsNzc3LjUsNzEzLjI1LDc4Ny41LDcxNy4yNSw3ODMuNSw3MTMuMjUiIHN0eWxlPSJzdHJva2U6IzE4MTgxODtzdHJva2Utd2lkdGg6MTsiLz48bGluZSBzdHlsZT0ic3Ryb2tlOiMxODE4MTg7c3Ryb2tlLXdpZHRoOjE7IiB4MT0iNzgxLjUiIHgyPSIxMTE4IiB5MT0iNzEzLjI1IiB5Mj0iNzEzLjI1Ii8+PHRleHQgZmlsbD0iIzAwMDAwMCIgZm9udC1mYW1pbHk9InNhbnMtc2VyaWYiIGZvbnQtc2l6ZT0iMTMiIGxlbmd0aEFkanVzdD0ic3BhY2luZyIgdGV4dExlbmd0aD0iOTEiIHg9Ijc5My41IiB5PSI3MDkuNjI1Ij5Db25maXJtIHVwZGF0ZTwvdGV4dD48L2c+PGxpbmUgc3R5bGU9InN0cm9rZTojMDAwMDAwO3N0cm9rZS13aWR0aDoxO3N0cm9rZS1kYXNoYXJyYXk6Mi4wLDIuMDsiIHgxPSIxMCIgeDI9IjExODcuNSIgeTE9IjcyMi4yNSIgeTI9IjcyMi4yNSIvPjx0ZXh0IGZpbGw9IiMwMDAwMDAiIGZvbnQtZmFtaWx5PSJzYW5zLXNlcmlmIiBmb250LXNpemU9IjExIiBmb250LXdlaWdodD0iYm9sZCIgbGVuZ3RoQWRqdXN0PSJzcGFjaW5nIiB0ZXh0TGVuZ3RoPSIxMTUuNSIgeD0iMTUiIHk9IjczMi42NDg0Ij5bR2FtZSBkb2VzIG5vdCBleGlzdF08L3RleHQ+PGcgY2xhc3M9Im1lc3NhZ2UiIGRhdGEtcGFydGljaXBhbnQtMT0iQmFja2VuZCIgZGF0YS1wYXJ0aWNpcGFudC0yPSJSQVdHIj48cG9seWdvbiBmaWxsPSIjMTgxODE4IiBwb2ludHM9IjkxOC41LDc1MC45Mzc1LDkyOC41LDc1NC45Mzc1LDkxOC41LDc1OC45Mzc1LDkyMi41LDc1NC45Mzc1IiBzdHlsZT0ic3Ryb2tlOiMxODE4MTg7c3Ryb2tlLXdpZHRoOjE7Ii8+PGxpbmUgc3R5bGU9InN0cm9rZTojMTgxODE4O3N0cm9rZS13aWR0aDoxOyIgeDE9Ijc3Ni41IiB4Mj0iOTI0LjUiIHkxPSI3NTQuOTM3NSIgeTI9Ijc1NC45Mzc1Ii8+PHRleHQgZmlsbD0iIzAwMDAwMCIgZm9udC1mYW1pbHk9InNhbnMtc2VyaWYiIGZvbnQtc2l6ZT0iMTMiIGxlbmd0aEFkanVzdD0ic3BhY2luZyIgdGV4dExlbmd0aD0iMTMwIiB4PSI3ODMuNSIgeT0iNzUxLjMxMjUiPlJlcXVlc3QgR2FtZSBEZXRhaWxzPC90ZXh0PjwvZz48cGF0aCBkPSJNMjAsNzY5LjkzNzUgTDg0LjUsNzY5LjkzNzUgTDg0LjUsNzc1Ljg1MTYgTDc0LjUsNzg1Ljg1MTYgTDIwLDc4NS44NTE2IEwyMCw3NjkuOTM3NSIgZmlsbD0iI0VFRUVFRSIgc3R5bGU9InN0cm9rZTojMDAwMDAwO3N0cm9rZS13aWR0aDoxLjU7Ii8+PHJlY3QgZmlsbD0ibm9uZSIgaGVpZ2h0PSIyNTMiIHN0eWxlPSJzdHJva2U6IzAwMDAwMDtzdHJva2Utd2lkdGg6MS41OyIgd2lkdGg9IjExNTcuNSIgeD0iMjAiIHk9Ijc2OS45Mzc1Ii8+PHRleHQgZmlsbD0iIzAwMDAwMCIgZm9udC1mYW1pbHk9InNhbnMtc2VyaWYiIGZvbnQtc2l6ZT0iMTMiIGZvbnQtd2VpZ2h0PSJib2xkIiBsZW5ndGhBZGp1c3Q9InNwYWNpbmciIHRleHRMZW5ndGg9IjE5LjUiIHg9IjM1IiB5PSI3ODMuMjI2NiI+YWx0PC90ZXh0Pjx0ZXh0IGZpbGw9IiMwMDAwMDAiIGZvbnQtZmFtaWx5PSJzYW5zLXNlcmlmIiBmb250LXNpemU9IjExIiBmb250LXdlaWdodD0iYm9sZCIgbGVuZ3RoQWRqdXN0PSJzcGFjaW5nIiB0ZXh0TGVuZ3RoPSIxMDQuNSIgeD0iOTkuNSIgeT0iNzgyLjMzNTkiPltSQVdHIHJldHVybnMgZGF0YV08L3RleHQ+PGcgY2xhc3M9Im1lc3NhZ2UiIGRhdGEtcGFydGljaXBhbnQtMT0iUkFXRyIgZGF0YS1wYXJ0aWNpcGFudC0yPSJCYWNrZW5kIj48cG9seWdvbiBmaWxsPSIjMTgxODE4IiBwb2ludHM9Ijc4Ny41LDgwMS43NjU2LDc3Ny41LDgwNS43NjU2LDc4Ny41LDgwOS43NjU2LDc4My41LDgwNS43NjU2IiBzdHlsZT0ic3Ryb2tlOiMxODE4MTg7c3Ryb2tlLXdpZHRoOjE7Ii8+PGxpbmUgc3R5bGU9InN0cm9rZTojMTgxODE4O3N0cm9rZS13aWR0aDoxOyIgeDE9Ijc4MS41IiB4Mj0iOTI5LjUiIHkxPSI4MDUuNzY1NiIgeTI9IjgwNS43NjU2Ii8+PHRleHQgZmlsbD0iIzAwMDAwMCIgZm9udC1mYW1pbHk9InNhbnMtc2VyaWYiIGZvbnQtc2l6ZT0iMTMiIGxlbmd0aEFkanVzdD0ic3BhY2luZyIgdGV4dExlbmd0aD0iMTA0IiB4PSI3OTMuNSIgeT0iODAyLjE0MDYiPlJldHVybiBHYW1lIERhdGE8L3RleHQ+PC9nPjxnIGNsYXNzPSJtZXNzYWdlIiBkYXRhLXBhcnRpY2lwYW50LTE9IkJhY2tlbmQiIGRhdGEtcGFydGljaXBhbnQtMj0iREIiPjxwb2x5Z29uIGZpbGw9IiMxODE4MTgiIHBvaW50cz0iMTEwNyw4MjkuNjc5NywxMTE3LDgzMy42Nzk3LDExMDcsODM3LjY3OTcsMTExMSw4MzMuNjc5NyIgc3R5bGU9InN0cm9rZTojMTgxODE4O3N0cm9rZS13aWR0aDoxOyIvPjxsaW5lIHN0eWxlPSJzdHJva2U6IzE4MTgxODtzdHJva2Utd2lkdGg6MTsiIHgxPSI3NzYuNSIgeDI9IjExMTMiIHkxPSI4MzMuNjc5NyIgeTI9IjgzMy42Nzk3Ii8+PHRleHQgZmlsbD0iIzAwMDAwMCIgZm9udC1mYW1pbHk9InNhbnMtc2VyaWYiIGZvbnQtc2l6ZT0iMTMiIGxlbmd0aEFkanVzdD0ic3BhY2luZyIgdGV4dExlbmd0aD0iMTMwIiB4PSI3ODMuNSIgeT0iODMwLjA1NDciPlNhdmUgdG8gUGVuZGluZ0dhbWVzPC90ZXh0PjwvZz48ZyBjbGFzcz0ibWVzc2FnZSIgZGF0YS1wYXJ0aWNpcGFudC0xPSJEQiIgZGF0YS1wYXJ0aWNpcGFudC0yPSJCYWNrZW5kIj48cG9seWdvbiBmaWxsPSIjMTgxODE4IiBwb2ludHM9Ijc4Ny41LDg1Ny41OTM4LDc3Ny41LDg2MS41OTM4LDc4Ny41LDg2NS41OTM4LDc4My41LDg2MS41OTM4IiBzdHlsZT0ic3Ryb2tlOiMxODE4MTg7c3Ryb2tlLXdpZHRoOjE7Ii8+PGxpbmUgc3R5bGU9InN0cm9rZTojMTgxODE4O3N0cm9rZS13aWR0aDoxOyIgeDE9Ijc4MS41IiB4Mj0iMTExOCIgeTE9Ijg2MS41OTM4IiB5Mj0iODYxLjU5MzgiLz48dGV4dCBmaWxsPSIjMDAwMDAwIiBmb250LWZhbWlseT0ic2Fucy1zZXJpZiIgZm9udC1zaXplPSIxMyIgbGVuZ3RoQWRqdXN0PSJzcGFjaW5nIiB0ZXh0TGVuZ3RoPSI5MSIgeD0iNzkzLjUiIHk9Ijg1Ny45Njg4Ij5Db25maXJtIGluc2VydDwvdGV4dD48L2c+PGxpbmUgc3R5bGU9InN0cm9rZTojMDAwMDAwO3N0cm9rZS13aWR0aDoxO3N0cm9rZS1kYXNoYXJyYXk6Mi4wLDIuMDsiIHgxPSIyMCIgeDI9IjExNzcuNSIgeTE9Ijg3MC41OTM4IiB5Mj0iODcwLjU5MzgiLz48dGV4dCBmaWxsPSIjMDAwMDAwIiBmb250LWZhbWlseT0ic2Fucy1zZXJpZiIgZm9udC1zaXplPSIxMSIgZm9udC13ZWlnaHQ9ImJvbGQiIGxlbmd0aEFkanVzdD0ic3BhY2luZyIgdGV4dExlbmd0aD0iMTQ4LjUiIHg9IjI1IiB5PSI4ODAuOTkyMiI+W1JBV0cgZG9lcyBub3QgcmV0dXJuIGRhdGFdPC90ZXh0PjxnIGNsYXNzPSJtZXNzYWdlIiBkYXRhLXBhcnRpY2lwYW50LTE9IlVJIiBkYXRhLXBhcnRpY2lwYW50LTI9IlVzZXIiPjxwb2x5Z29uIGZpbGw9IiMxODE4MTgiIHBvaW50cz0iNTgsODk5LjI4MTMsNDgsOTAzLjI4MTMsNTgsOTA3LjI4MTMsNTQsOTAzLjI4MTMiIHN0eWxlPSJzdHJva2U6IzE4MTgxODtzdHJva2Utd2lkdGg6MTsiLz48bGluZSBzdHlsZT0ic3Ryb2tlOiMxODE4MTg7c3Ryb2tlLXdpZHRoOjE7IiB4MT0iNTIiIHgyPSIzNTUiIHkxPSI5MDMuMjgxMyIgeTI9IjkwMy4yODEzIi8+PHRleHQgZmlsbD0iIzAwMDAwMCIgZm9udC1mYW1pbHk9InNhbnMtc2VyaWYiIGZvbnQtc2l6ZT0iMTMiIGxlbmd0aEFkanVzdD0ic3BhY2luZyIgdGV4dExlbmd0aD0iMTU2IiB4PSI2NCIgeT0iODk5LjY1NjMiPlByb21wdCBtYW51YWwgc3VibWlzc2lvbjwvdGV4dD48L2c+PGcgY2xhc3M9Im1lc3NhZ2UiIGRhdGEtcGFydGljaXBhbnQtMT0iVXNlciIgZGF0YS1wYXJ0aWNpcGFudC0yPSJVSSI+PHBvbHlnb24gZmlsbD0iIzE4MTgxOCIgcG9pbnRzPSIzNDQsOTI3LjE5NTMsMzU0LDkzMS4xOTUzLDM0NCw5MzUuMTk1MywzNDgsOTMxLjE5NTMiIHN0eWxlPSJzdHJva2U6IzE4MTgxODtzdHJva2Utd2lkdGg6MTsiLz48bGluZSBzdHlsZT0ic3Ryb2tlOiMxODE4MTg7c3Ryb2tlLXdpZHRoOjE7IiB4MT0iNDciIHgyPSIzNTAiIHkxPSI5MzEuMTk1MyIgeTI9IjkzMS4xOTUzIi8+PHRleHQgZmlsbD0iIzAwMDAwMCIgZm9udC1mYW1pbHk9InNhbnMtc2VyaWYiIGZvbnQtc2l6ZT0iMTMiIGxlbmd0aEFkanVzdD0ic3BhY2luZyIgdGV4dExlbmd0aD0iMTc1LjUiIHg9IjU0IiB5PSI5MjcuNTcwMyI+RW50ZXIgZ2FtZSBkZXRhaWxzIG1hbnVhbGx5PC90ZXh0PjwvZz48ZyBjbGFzcz0ibWVzc2FnZSIgZGF0YS1wYXJ0aWNpcGFudC0xPSJVSSIgZGF0YS1wYXJ0aWNpcGFudC0yPSJCYWNrZW5kIj48cG9seWdvbiBmaWxsPSIjMTgxODE4IiBwb2ludHM9Ijc2NC41LDk1NS4xMDk0LDc3NC41LDk1OS4xMDk0LDc2NC41LDk2My4xMDk0LDc2OC41LDk1OS4xMDk0IiBzdHlsZT0ic3Ryb2tlOiMxODE4MTg7c3Ryb2tlLXdpZHRoOjE7Ii8+PGxpbmUgc3R5bGU9InN0cm9rZTojMTgxODE4O3N0cm9rZS13aWR0aDoxOyIgeDE9IjM1NiIgeDI9Ijc3MC41IiB5MT0iOTU5LjEwOTQiIHkyPSI5NTkuMTA5NCIvPjx0ZXh0IGZpbGw9IiMwMDAwMDAiIGZvbnQtZmFtaWx5PSJzYW5zLXNlcmlmIiBmb250LXNpemU9IjEzIiBsZW5ndGhBZGp1c3Q9InNwYWNpbmciIHRleHRMZW5ndGg9IjIwOCIgeD0iMzYzIiB5PSI5NTUuNDg0NCI+U2F2ZSBtYW51YWwgZ2FtZSB0byBQZW5kaW5nR2FtZXM8L3RleHQ+PC9nPjxnIGNsYXNzPSJtZXNzYWdlIiBkYXRhLXBhcnRpY2lwYW50LTE9IkJhY2tlbmQiIGRhdGEtcGFydGljaXBhbnQtMj0iREIiPjxwb2x5Z29uIGZpbGw9IiMxODE4MTgiIHBvaW50cz0iMTEwNyw5ODMuMDIzNCwxMTE3LDk4Ny4wMjM0LDExMDcsOTkxLjAyMzQsMTExMSw5ODcuMDIzNCIgc3R5bGU9InN0cm9rZTojMTgxODE4O3N0cm9rZS13aWR0aDoxOyIvPjxsaW5lIHN0eWxlPSJzdHJva2U6IzE4MTgxODtzdHJva2Utd2lkdGg6MTsiIHgxPSI3NzYuNSIgeDI9IjExMTMiIHkxPSI5ODcuMDIzNCIgeTI9Ijk4Ny4wMjM0Ii8+PHRleHQgZmlsbD0iIzAwMDAwMCIgZm9udC1mYW1pbHk9InNhbnMtc2VyaWYiIGZvbnQtc2l6ZT0iMTMiIGxlbmd0aEFkanVzdD0ic3BhY2luZyIgdGV4dExlbmd0aD0iMTIzLjUiIHg9Ijc4My41IiB5PSI5ODMuMzk4NCI+SW5zZXJ0IFBlbmRpbmcgR2FtZTwvdGV4dD48L2c+PGcgY2xhc3M9Im1lc3NhZ2UiIGRhdGEtcGFydGljaXBhbnQtMT0iREIiIGRhdGEtcGFydGljaXBhbnQtMj0iQmFja2VuZCI+PHBvbHlnb24gZmlsbD0iIzE4MTgxOCIgcG9pbnRzPSI3ODcuNSwxMDEwLjkzNzUsNzc3LjUsMTAxNC45Mzc1LDc4Ny41LDEwMTguOTM3NSw3ODMuNSwxMDE0LjkzNzUiIHN0eWxlPSJzdHJva2U6IzE4MTgxODtzdHJva2Utd2lkdGg6MTsiLz48bGluZSBzdHlsZT0ic3Ryb2tlOiMxODE4MTg7c3Ryb2tlLXdpZHRoOjE7IiB4MT0iNzgxLjUiIHgyPSIxMTE4IiB5MT0iMTAxNC45Mzc1IiB5Mj0iMTAxNC45Mzc1Ii8+PHRleHQgZmlsbD0iIzAwMDAwMCIgZm9udC1mYW1pbHk9InNhbnMtc2VyaWYiIGZvbnQtc2l6ZT0iMTMiIGxlbmd0aEFkanVzdD0ic3BhY2luZyIgdGV4dExlbmd0aD0iOTEiIHg9Ijc5My41IiB5PSIxMDExLjMxMjUiPkNvbmZpcm0gaW5zZXJ0PC90ZXh0PjwvZz48ZyBjbGFzcz0ibWVzc2FnZSIgZGF0YS1wYXJ0aWNpcGFudC0xPSJCYWNrZW5kIiBkYXRhLXBhcnRpY2lwYW50LTI9IlVJIj48cG9seWdvbiBmaWxsPSIjMTgxODE4IiBwb2ludHM9IjM2NywxMDUyLjg1MTYsMzU3LDEwNTYuODUxNiwzNjcsMTA2MC44NTE2LDM2MywxMDU2Ljg1MTYiIHN0eWxlPSJzdHJva2U6IzE4MTgxODtzdHJva2Utd2lkdGg6MTsiLz48bGluZSBzdHlsZT0ic3Ryb2tlOiMxODE4MTg7c3Ryb2tlLXdpZHRoOjE7IiB4MT0iMzYxIiB4Mj0iNzc1LjUiIHkxPSIxMDU2Ljg1MTYiIHkyPSIxMDU2Ljg1MTYiLz48dGV4dCBmaWxsPSIjMDAwMDAwIiBmb250LWZhbWlseT0ic2Fucy1zZXJpZiIgZm9udC1zaXplPSIxMyIgbGVuZ3RoQWRqdXN0PSJzcGFjaW5nIiB0ZXh0TGVuZ3RoPSIzOTYuNSIgeD0iMzczIiB5PSIxMDUzLjIyNjYiPlRvYXN0ICJHYW1lICIke2dhbWVEYXRhLm5hbWV9IiBzdWJtaXR0ZWQgZm9yIGFkbWluIGFwcHJvdmFsISI8L3RleHQ+PC9nPjxyZWN0IGZpbGw9IiNFRUVFRUUiIGhlaWdodD0iMyIgc3R5bGU9InN0cm9rZTojRUVFRUVFO3N0cm9rZS13aWR0aDoxOyIgd2lkdGg9IjExOTcuNSIgeD0iMCIgeT0iMTA4NC44MDg2Ii8+PGxpbmUgc3R5bGU9InN0cm9rZTojMDAwMDAwO3N0cm9rZS13aWR0aDoxOyIgeDE9IjAiIHgyPSIxMTk3LjUiIHkxPSIxMDg0LjgwODYiIHkyPSIxMDg0LjgwODYiLz48bGluZSBzdHlsZT0ic3Ryb2tlOiMwMDAwMDA7c3Ryb2tlLXdpZHRoOjE7IiB4MT0iMCIgeDI9IjExOTcuNSIgeTE9IjEwODcuODA4NiIgeTI9IjEwODcuODA4NiIvPjxyZWN0IGZpbGw9IiNFRUVFRUUiIGhlaWdodD0iMjEuOTE0MSIgc3R5bGU9InN0cm9rZTojMDAwMDAwO3N0cm9rZS13aWR0aDoyOyIgd2lkdGg9IjIyOC41IiB4PSI0ODQuNSIgeT0iMTA3NC44NTE2Ii8+PHRleHQgZmlsbD0iIzAwMDAwMCIgZm9udC1mYW1pbHk9InNhbnMtc2VyaWYiIGZvbnQtc2l6ZT0iMTMiIGZvbnQtd2VpZ2h0PSJib2xkIiBsZW5ndGhBZGp1c3Q9InNwYWNpbmciIHRleHRMZW5ndGg9IjIwOCIgeD0iNDkwLjUiIHk9IjEwOTEuMTQwNiI+QWRtaW4gQXBwcm92YWwgRmxvdyAoaWYgaXNBZG1pbik8L3RleHQ+PGcgY2xhc3M9Im1lc3NhZ2UiIGRhdGEtcGFydGljaXBhbnQtMT0iQWRtaW4iIGRhdGEtcGFydGljaXBhbnQtMj0iVUkiPjxwb2x5Z29uIGZpbGw9IiMxODE4MTgiIHBvaW50cz0iMzQ0LDExMjIuNjc5NywzNTQsMTEyNi42Nzk3LDM0NCwxMTMwLjY3OTcsMzQ4LDExMjYuNjc5NyIgc3R5bGU9InN0cm9rZTojMTgxODE4O3N0cm9rZS13aWR0aDoxOyIvPjxsaW5lIHN0eWxlPSJzdHJva2U6IzE4MTgxODtzdHJva2Utd2lkdGg6MTsiIHgxPSI5NC41IiB4Mj0iMzUwIiB5MT0iMTEyNi42Nzk3IiB5Mj0iMTEyNi42Nzk3Ii8+PHRleHQgZmlsbD0iIzAwMDAwMCIgZm9udC1mYW1pbHk9InNhbnMtc2VyaWYiIGZvbnQtc2l6ZT0iMTMiIGxlbmd0aEFkanVzdD0ic3BhY2luZyIgdGV4dExlbmd0aD0iNzgiIHg9IjEwMS41IiB5PSIxMTIzLjA1NDciPlZpc2l0IC9hZG1pbjwvdGV4dD48L2c+PGcgY2xhc3M9Im1lc3NhZ2UiIGRhdGEtcGFydGljaXBhbnQtMT0iVUkiIGRhdGEtcGFydGljaXBhbnQtMj0iQmFja2VuZCI+PHBvbHlnb24gZmlsbD0iIzE4MTgxOCIgcG9pbnRzPSI3NjQuNSwxMTUwLjU5MzgsNzc0LjUsMTE1NC41OTM4LDc2NC41LDExNTguNTkzOCw3NjguNSwxMTU0LjU5MzgiIHN0eWxlPSJzdHJva2U6IzE4MTgxODtzdHJva2Utd2lkdGg6MTsiLz48bGluZSBzdHlsZT0ic3Ryb2tlOiMxODE4MTg7c3Ryb2tlLXdpZHRoOjE7IiB4MT0iMzU2IiB4Mj0iNzcwLjUiIHkxPSIxMTU0LjU5MzgiIHkyPSIxMTU0LjU5MzgiLz48dGV4dCBmaWxsPSIjMDAwMDAwIiBmb250LWZhbWlseT0ic2Fucy1zZXJpZiIgZm9udC1zaXplPSIxMyIgbGVuZ3RoQWRqdXN0PSJzcGFjaW5nIiB0ZXh0TGVuZ3RoPSIxMzYuNSIgeD0iMzYzIiB5PSIxMTUwLjk2ODgiPlJlcXVlc3QgUGVuZGluZyBHYW1lczwvdGV4dD48L2c+PGcgY2xhc3M9Im1lc3NhZ2UiIGRhdGEtcGFydGljaXBhbnQtMT0iQmFja2VuZCIgZGF0YS1wYXJ0aWNpcGFudC0yPSJEQiI+PHBvbHlnb24gZmlsbD0iIzE4MTgxOCIgcG9pbnRzPSIxMTA3LDExNzguNTA3OCwxMTE3LDExODIuNTA3OCwxMTA3LDExODYuNTA3OCwxMTExLDExODIuNTA3OCIgc3R5bGU9InN0cm9rZTojMTgxODE4O3N0cm9rZS13aWR0aDoxOyIvPjxsaW5lIHN0eWxlPSJzdHJva2U6IzE4MTgxODtzdHJva2Utd2lkdGg6MTsiIHgxPSI3NzYuNSIgeDI9IjExMTMiIHkxPSIxMTgyLjUwNzgiIHkyPSIxMTgyLjUwNzgiLz48dGV4dCBmaWxsPSIjMDAwMDAwIiBmb250LWZhbWlseT0ic2Fucy1zZXJpZiIgZm9udC1zaXplPSIxMyIgbGVuZ3RoQWRqdXN0PSJzcGFjaW5nIiB0ZXh0TGVuZ3RoPSIxMzAiIHg9Ijc4My41IiB5PSIxMTc4Ljg4MjgiPlJldHVybiBQZW5kaW5nIEdhbWVzPC90ZXh0PjwvZz48ZyBjbGFzcz0ibWVzc2FnZSIgZGF0YS1wYXJ0aWNpcGFudC0xPSJEQiIgZGF0YS1wYXJ0aWNpcGFudC0yPSJCYWNrZW5kIj48cG9seWdvbiBmaWxsPSIjMTgxODE4IiBwb2ludHM9Ijc4Ny41LDEyMDYuNDIxOSw3NzcuNSwxMjEwLjQyMTksNzg3LjUsMTIxNC40MjE5LDc4My41LDEyMTAuNDIxOSIgc3R5bGU9InN0cm9rZTojMTgxODE4O3N0cm9rZS13aWR0aDoxOyIvPjxsaW5lIHN0eWxlPSJzdHJva2U6IzE4MTgxODtzdHJva2Utd2lkdGg6MTsiIHgxPSI3ODEuNSIgeDI9IjExMTgiIHkxPSIxMjEwLjQyMTkiIHkyPSIxMjEwLjQyMTkiLz48dGV4dCBmaWxsPSIjMDAwMDAwIiBmb250LWZhbWlseT0ic2Fucy1zZXJpZiIgZm9udC1zaXplPSIxMyIgbGVuZ3RoQWRqdXN0PSJzcGFjaW5nIiB0ZXh0TGVuZ3RoPSI4NC41IiB4PSI3OTMuNSIgeT0iMTIwNi43OTY5Ij5QZW5kaW5nIEdhbWVzPC90ZXh0PjwvZz48ZyBjbGFzcz0ibWVzc2FnZSIgZGF0YS1wYXJ0aWNpcGFudC0xPSJCYWNrZW5kIiBkYXRhLXBhcnRpY2lwYW50LTI9IlVJIj48cG9seWdvbiBmaWxsPSIjMTgxODE4IiBwb2ludHM9IjM2NywxMjM0LjMzNTksMzU3LDEyMzguMzM1OSwzNjcsMTI0Mi4zMzU5LDM2MywxMjM4LjMzNTkiIHN0eWxlPSJzdHJva2U6IzE4MTgxODtzdHJva2Utd2lkdGg6MTsiLz48bGluZSBzdHlsZT0ic3Ryb2tlOiMxODE4MTg7c3Ryb2tlLXdpZHRoOjE7IiB4MT0iMzYxIiB4Mj0iNzc1LjUiIHkxPSIxMjM4LjMzNTkiIHkyPSIxMjM4LjMzNTkiLz48dGV4dCBmaWxsPSIjMDAwMDAwIiBmb250LWZhbWlseT0ic2Fucy1zZXJpZiIgZm9udC1zaXplPSIxMyIgbGVuZ3RoQWRqdXN0PSJzcGFjaW5nIiB0ZXh0TGVuZ3RoPSIxMTAuNSIgeD0iMzczIiB5PSIxMjM0LjcxMDkiPlNob3cgcGVuZGluZyBsaXN0PC90ZXh0PjwvZz48ZyBjbGFzcz0ibWVzc2FnZSIgZGF0YS1wYXJ0aWNpcGFudC0xPSJBZG1pbiIgZGF0YS1wYXJ0aWNpcGFudC0yPSJVSSI+PHBvbHlnb24gZmlsbD0iIzE4MTgxOCIgcG9pbnRzPSIzNDQsMTI2Mi4yNSwzNTQsMTI2Ni4yNSwzNDQsMTI3MC4yNSwzNDgsMTI2Ni4yNSIgc3R5bGU9InN0cm9rZTojMTgxODE4O3N0cm9rZS13aWR0aDoxOyIvPjxsaW5lIHN0eWxlPSJzdHJva2U6IzE4MTgxODtzdHJva2Utd2lkdGg6MTsiIHgxPSI5NC41IiB4Mj0iMzUwIiB5MT0iMTI2Ni4yNSIgeTI9IjEyNjYuMjUiLz48dGV4dCBmaWxsPSIjMDAwMDAwIiBmb250LWZhbWlseT0ic2Fucy1zZXJpZiIgZm9udC1zaXplPSIxMyIgbGVuZ3RoQWRqdXN0PSJzcGFjaW5nIiB0ZXh0TGVuZ3RoPSIxNTYiIHg9IjEwMS41IiB5PSIxMjYyLjYyNSI+QXBwcm92ZS9FZGl0L1JlamVjdCBnYW1lPC90ZXh0PjwvZz48ZyBjbGFzcz0ibWVzc2FnZSIgZGF0YS1wYXJ0aWNpcGFudC0xPSJVSSIgZGF0YS1wYXJ0aWNpcGFudC0yPSJCYWNrZW5kIj48cG9seWdvbiBmaWxsPSIjMTgxODE4IiBwb2ludHM9Ijc2NC41LDEyOTAuMTY0MSw3NzQuNSwxMjk0LjE2NDEsNzY0LjUsMTI5OC4xNjQxLDc2OC41LDEyOTQuMTY0MSIgc3R5bGU9InN0cm9rZTojMTgxODE4O3N0cm9rZS13aWR0aDoxOyIvPjxsaW5lIHN0eWxlPSJzdHJva2U6IzE4MTgxODtzdHJva2Utd2lkdGg6MTsiIHgxPSIzNTYiIHgyPSI3NzAuNSIgeTE9IjEyOTQuMTY0MSIgeTI9IjEyOTQuMTY0MSIvPjx0ZXh0IGZpbGw9IiMwMDAwMDAiIGZvbnQtZmFtaWx5PSJzYW5zLXNlcmlmIiBmb250LXNpemU9IjEzIiBsZW5ndGhBZGp1c3Q9InNwYWNpbmciIHRleHRMZW5ndGg9IjcxLjUiIHg9IjM2MyIgeT0iMTI5MC41MzkxIj5TZW5kIHVwZGF0ZTwvdGV4dD48L2c+PGcgY2xhc3M9Im1lc3NhZ2UiIGRhdGEtcGFydGljaXBhbnQtMT0iQmFja2VuZCIgZGF0YS1wYXJ0aWNpcGFudC0yPSJEQiI+PHBvbHlnb24gZmlsbD0iIzE4MTgxOCIgcG9pbnRzPSIxMTA3LDEzMTguMDc4MSwxMTE3LDEzMjIuMDc4MSwxMTA3LDEzMjYuMDc4MSwxMTExLDEzMjIuMDc4MSIgc3R5bGU9InN0cm9rZTojMTgxODE4O3N0cm9rZS13aWR0aDoxOyIvPjxsaW5lIHN0eWxlPSJzdHJva2U6IzE4MTgxODtzdHJva2Utd2lkdGg6MTsiIHgxPSI3NzYuNSIgeDI9IjExMTMiIHkxPSIxMzIyLjA3ODEiIHkyPSIxMzIyLjA3ODEiLz48dGV4dCBmaWxsPSIjMDAwMDAwIiBmb250LWZhbWlseT0ic2Fucy1zZXJpZiIgZm9udC1zaXplPSIxMyIgbGVuZ3RoQWRqdXN0PSJzcGFjaW5nIiB0ZXh0TGVuZ3RoPSIzMTguNSIgeD0iNzgzLjUiIHk9IjEzMTguNDUzMSI+SWYgYXBwcm92ZWQgJiM4NTk0OyBhZGQgdG8gR2FtZXMgc2NoZW1hICZhbXA7IHJlbW92ZSBzdGF0dXM8L3RleHQ+PC9nPjxnIGNsYXNzPSJtZXNzYWdlIiBkYXRhLXBhcnRpY2lwYW50LTE9IkJhY2tlbmQiIGRhdGEtcGFydGljaXBhbnQtMj0iREIiPjxwb2x5Z29uIGZpbGw9IiMxODE4MTgiIHBvaW50cz0iMTEwNywxMzQ1Ljk5MjIsMTExNywxMzQ5Ljk5MjIsMTEwNywxMzUzLjk5MjIsMTExMSwxMzQ5Ljk5MjIiIHN0eWxlPSJzdHJva2U6IzE4MTgxODtzdHJva2Utd2lkdGg6MTsiLz48bGluZSBzdHlsZT0ic3Ryb2tlOiMxODE4MTg7c3Ryb2tlLXdpZHRoOjE7IiB4MT0iNzc2LjUiIHgyPSIxMTEzIiB5MT0iMTM0OS45OTIyIiB5Mj0iMTM0OS45OTIyIi8+PHRleHQgZmlsbD0iIzAwMDAwMCIgZm9udC1mYW1pbHk9InNhbnMtc2VyaWYiIGZvbnQtc2l6ZT0iMTMiIGxlbmd0aEFkanVzdD0ic3BhY2luZyIgdGV4dExlbmd0aD0iMjQwLjUiIHg9Ijc4My41IiB5PSIxMzQ2LjM2NzIiPklmIHJlamVjdGVkICYjODU5NDsgc2V0IHN0YXR1cyA9ICJyZWplY3RlZCI8L3RleHQ+PC9nPjxnIGNsYXNzPSJtZXNzYWdlIiBkYXRhLXBhcnRpY2lwYW50LTE9IkRCIiBkYXRhLXBhcnRpY2lwYW50LTI9IkJhY2tlbmQiPjxwb2x5Z29uIGZpbGw9IiMxODE4MTgiIHBvaW50cz0iNzg3LjUsMTM3My45MDYzLDc3Ny41LDEzNzcuOTA2Myw3ODcuNSwxMzgxLjkwNjMsNzgzLjUsMTM3Ny45MDYzIiBzdHlsZT0ic3Ryb2tlOiMxODE4MTg7c3Ryb2tlLXdpZHRoOjE7Ii8+PGxpbmUgc3R5bGU9InN0cm9rZTojMTgxODE4O3N0cm9rZS13aWR0aDoxOyIgeDE9Ijc4MS41IiB4Mj0iMTExOCIgeTE9IjEzNzcuOTA2MyIgeTI9IjEzNzcuOTA2MyIvPjx0ZXh0IGZpbGw9IiMwMDAwMDAiIGZvbnQtZmFtaWx5PSJzYW5zLXNlcmlmIiBmb250LXNpemU9IjEzIiBsZW5ndGhBZGp1c3Q9InNwYWNpbmciIHRleHRMZW5ndGg9IjkxIiB4PSI3OTMuNSIgeT0iMTM3NC4yODEzIj5Db25maXJtIHVwZGF0ZTwvdGV4dD48L2c+PGcgY2xhc3M9Im1lc3NhZ2UiIGRhdGEtcGFydGljaXBhbnQtMT0iQmFja2VuZCIgZGF0YS1wYXJ0aWNpcGFudC0yPSJVSSI+PHBvbHlnb24gZmlsbD0iIzE4MTgxOCIgcG9pbnRzPSIzNjcsMTQwMS44MjAzLDM1NywxNDA1LjgyMDMsMzY3LDE0MDkuODIwMywzNjMsMTQwNS44MjAzIiBzdHlsZT0ic3Ryb2tlOiMxODE4MTg7c3Ryb2tlLXdpZHRoOjE7Ii8+PGxpbmUgc3R5bGU9InN0cm9rZTojMTgxODE4O3N0cm9rZS13aWR0aDoxOyIgeDE9IjM2MSIgeDI9Ijc3NS41IiB5MT0iMTQwNS44MjAzIiB5Mj0iMTQwNS44MjAzIi8+PHRleHQgZmlsbD0iIzAwMDAwMCIgZm9udC1mYW1pbHk9InNhbnMtc2VyaWYiIGZvbnQtc2l6ZT0iMTMiIGxlbmd0aEFkanVzdD0ic3BhY2luZyIgdGV4dExlbmd0aD0iMTE3IiB4PSIzNzMiIHk9IjE0MDIuMTk1MyI+U2hvdyBhY3Rpb24gcmVzdWx0PC90ZXh0PjwvZz48ZyBjbGFzcz0ibWVzc2FnZSIgZGF0YS1wYXJ0aWNpcGFudC0xPSJVSSIgZGF0YS1wYXJ0aWNpcGFudC0yPSJBZG1pbiI+PHBvbHlnb24gZmlsbD0iIzE4MTgxOCIgcG9pbnRzPSIxMDUuNSwxNDI5LjczNDQsOTUuNSwxNDMzLjczNDQsMTA1LjUsMTQzNy43MzQ0LDEwMS41LDE0MzMuNzM0NCIgc3R5bGU9InN0cm9rZTojMTgxODE4O3N0cm9rZS13aWR0aDoxOyIvPjxsaW5lIHN0eWxlPSJzdHJva2U6IzE4MTgxODtzdHJva2Utd2lkdGg6MTsiIHgxPSI5OS41IiB4Mj0iMzU1IiB5MT0iMTQzMy43MzQ0IiB5Mj0iMTQzMy43MzQ0Ii8+PHRleHQgZmlsbD0iIzAwMDAwMCIgZm9udC1mYW1pbHk9InNhbnMtc2VyaWYiIGZvbnQtc2l6ZT0iMTMiIGxlbmd0aEFkanVzdD0ic3BhY2luZyIgdGV4dExlbmd0aD0iMTM2LjUiIHg9IjExMS41IiB5PSIxNDMwLjEwOTQiPkRpc3BsYXkgdXBkYXRlIHJlc3VsdDwvdGV4dD48L2c+PHJlY3QgZmlsbD0iI0VFRUVFRSIgaGVpZ2h0PSIzIiBzdHlsZT0ic3Ryb2tlOiNFRUVFRUU7c3Ryb2tlLXdpZHRoOjE7IiB3aWR0aD0iMTE5Ny41IiB4PSIwIiB5PSIxNDYxLjY5MTQiLz48bGluZSBzdHlsZT0ic3Ryb2tlOiMwMDAwMDA7c3Ryb2tlLXdpZHRoOjE7IiB4MT0iMCIgeDI9IjExOTcuNSIgeTE9IjE0NjEuNjkxNCIgeTI9IjE0NjEuNjkxNCIvPjxsaW5lIHN0eWxlPSJzdHJva2U6IzAwMDAwMDtzdHJva2Utd2lkdGg6MTsiIHgxPSIwIiB4Mj0iMTE5Ny41IiB5MT0iMTQ2NC42OTE0IiB5Mj0iMTQ2NC42OTE0Ii8+PHJlY3QgZmlsbD0iI0VFRUVFRSIgaGVpZ2h0PSIyMS45MTQxIiBzdHlsZT0ic3Ryb2tlOiMwMDAwMDA7c3Ryb2tlLXdpZHRoOjI7IiB3aWR0aD0iMTk2IiB4PSI1MDAuNzUiIHk9IjE0NTEuNzM0NCIvPjx0ZXh0IGZpbGw9IiMwMDAwMDAiIGZvbnQtZmFtaWx5PSJzYW5zLXNlcmlmIiBmb250LXNpemU9IjEzIiBmb250LXdlaWdodD0iYm9sZCIgbGVuZ3RoQWRqdXN0PSJzcGFjaW5nIiB0ZXh0TGVuZ3RoPSIxNzUuNSIgeD0iNTA2Ljc1IiB5PSIxNDY4LjAyMzQiPkdhbWUgRGV0YWlscyAmYW1wOyBSZXZpZXdzIEZsb3c8L3RleHQ+PGcgY2xhc3M9Im1lc3NhZ2UiIGRhdGEtcGFydGljaXBhbnQtMT0iVXNlciIgZGF0YS1wYXJ0aWNpcGFudC0yPSJVSSI+PHBvbHlnb24gZmlsbD0iIzE4MTgxOCIgcG9pbnRzPSIzNDQsMTQ5OS41NjI1LDM1NCwxNTAzLjU2MjUsMzQ0LDE1MDcuNTYyNSwzNDgsMTUwMy41NjI1IiBzdHlsZT0ic3Ryb2tlOiMxODE4MTg7c3Ryb2tlLXdpZHRoOjE7Ii8+PGxpbmUgc3R5bGU9InN0cm9rZTojMTgxODE4O3N0cm9rZS13aWR0aDoxOyIgeDE9IjQ3IiB4Mj0iMzUwIiB5MT0iMTUwMy41NjI1IiB5Mj0iMTUwMy41NjI1Ii8+PHRleHQgZmlsbD0iIzAwMDAwMCIgZm9udC1mYW1pbHk9InNhbnMtc2VyaWYiIGZvbnQtc2l6ZT0iMTMiIGxlbmd0aEFkanVzdD0ic3BhY2luZyIgdGV4dExlbmd0aD0iMTA0IiB4PSI1NCIgeT0iMTQ5OS45Mzc1Ij5TZWxlY3QgR2FtZSBDYXJkPC90ZXh0PjwvZz48ZyBjbGFzcz0ibWVzc2FnZSIgZGF0YS1wYXJ0aWNpcGFudC0xPSJVSSIgZGF0YS1wYXJ0aWNpcGFudC0yPSJSQVdHIj48cG9seWdvbiBmaWxsPSIjMTgxODE4IiBwb2ludHM9IjkxOC41LDE1MjcuNDc2Niw5MjguNSwxNTMxLjQ3NjYsOTE4LjUsMTUzNS40NzY2LDkyMi41LDE1MzEuNDc2NiIgc3R5bGU9InN0cm9rZTojMTgxODE4O3N0cm9rZS13aWR0aDoxOyIvPjxsaW5lIHN0eWxlPSJzdHJva2U6IzE4MTgxODtzdHJva2Utd2lkdGg6MTsiIHgxPSIzNTYiIHgyPSI5MjQuNSIgeTE9IjE1MzEuNDc2NiIgeTI9IjE1MzEuNDc2NiIvPjx0ZXh0IGZpbGw9IiMwMDAwMDAiIGZvbnQtZmFtaWx5PSJzYW5zLXNlcmlmIiBmb250LXNpemU9IjEzIiBsZW5ndGhBZGp1c3Q9InNwYWNpbmciIHRleHRMZW5ndGg9IjE0OS41IiB4PSIzNjMiIHk9IjE1MjcuODUxNiI+RmV0Y2ggZGV0YWlscyBpZiBleGlzdHM8L3RleHQ+PC9nPjxnIGNsYXNzPSJtZXNzYWdlIiBkYXRhLXBhcnRpY2lwYW50LTE9IlVJIiBkYXRhLXBhcnRpY2lwYW50LTI9IkRCIj48cG9seWdvbiBmaWxsPSIjMTgxODE4IiBwb2ludHM9IjExMDcsMTU1NS4zOTA2LDExMTcsMTU1OS4zOTA2LDExMDcsMTU2My4zOTA2LDExMTEsMTU1OS4zOTA2IiBzdHlsZT0ic3Ryb2tlOiMxODE4MTg7c3Ryb2tlLXdpZHRoOjE7Ii8+PGxpbmUgc3R5bGU9InN0cm9rZTojMTgxODE4O3N0cm9rZS13aWR0aDoxOyIgeDE9IjM1NiIgeDI9IjExMTMiIHkxPSIxNTU5LjM5MDYiIHkyPSIxNTU5LjM5MDYiLz48dGV4dCBmaWxsPSIjMDAwMDAwIiBmb250LWZhbWlseT0ic2Fucy1zZXJpZiIgZm9udC1zaXplPSIxMyIgbGVuZ3RoQWRqdXN0PSJzcGFjaW5nIiB0ZXh0TGVuZ3RoPSIxODIiIHg9IjM2MyIgeT0iMTU1NS43NjU2Ij5GZXRjaCBmcm9tIERCIGlmIG5vdCBpbiBSQVdHPC90ZXh0PjwvZz48ZyBjbGFzcz0ibWVzc2FnZSIgZGF0YS1wYXJ0aWNpcGFudC0xPSJVSSIgZGF0YS1wYXJ0aWNpcGFudC0yPSJVc2VyIj48cG9seWdvbiBmaWxsPSIjMTgxODE4IiBwb2ludHM9IjU4LDE1ODMuMzA0Nyw0OCwxNTg3LjMwNDcsNTgsMTU5MS4zMDQ3LDU0LDE1ODcuMzA0NyIgc3R5bGU9InN0cm9rZTojMTgxODE4O3N0cm9rZS13aWR0aDoxOyIvPjxsaW5lIHN0eWxlPSJzdHJva2U6IzE4MTgxODtzdHJva2Utd2lkdGg6MTsiIHgxPSI1MiIgeDI9IjM1NSIgeTE9IjE1ODcuMzA0NyIgeTI9IjE1ODcuMzA0NyIvPjx0ZXh0IGZpbGw9IiMwMDAwMDAiIGZvbnQtZmFtaWx5PSJzYW5zLXNlcmlmIiBmb250LXNpemU9IjEzIiBsZW5ndGhBZGp1c3Q9InNwYWNpbmciIHRleHRMZW5ndGg9IjE0MyIgeD0iNjQiIHk9IjE1ODMuNjc5NyI+U2hvdyBkZXRhaWxzICsgcmV2aWV3czwvdGV4dD48L2c+PGcgY2xhc3M9Im1lc3NhZ2UiIGRhdGEtcGFydGljaXBhbnQtMT0iVXNlciIgZGF0YS1wYXJ0aWNpcGFudC0yPSJVSSI+PHBvbHlnb24gZmlsbD0iIzE4MTgxOCIgcG9pbnRzPSIzNDQsMTYxMS4yMTg4LDM1NCwxNjE1LjIxODgsMzQ0LDE2MTkuMjE4OCwzNDgsMTYxNS4yMTg4IiBzdHlsZT0ic3Ryb2tlOiMxODE4MTg7c3Ryb2tlLXdpZHRoOjE7Ii8+PGxpbmUgc3R5bGU9InN0cm9rZTojMTgxODE4O3N0cm9rZS13aWR0aDoxOyIgeDE9IjQ3IiB4Mj0iMzUwIiB5MT0iMTYxNS4yMTg4IiB5Mj0iMTYxNS4yMTg4Ii8+PHRleHQgZmlsbD0iIzAwMDAwMCIgZm9udC1mYW1pbHk9InNhbnMtc2VyaWYiIGZvbnQtc2l6ZT0iMTMiIGxlbmd0aEFkanVzdD0ic3BhY2luZyIgdGV4dExlbmd0aD0iODQuNSIgeD0iNTQiIHk9IjE2MTEuNTkzOCI+U3VibWl0IHJldmlldzwvdGV4dD48L2c+PGcgY2xhc3M9Im1lc3NhZ2UiIGRhdGEtcGFydGljaXBhbnQtMT0iVUkiIGRhdGEtcGFydGljaXBhbnQtMj0iQmFja2VuZCI+PHBvbHlnb24gZmlsbD0iIzE4MTgxOCIgcG9pbnRzPSI3NjQuNSwxNjM5LjEzMjgsNzc0LjUsMTY0My4xMzI4LDc2NC41LDE2NDcuMTMyOCw3NjguNSwxNjQzLjEzMjgiIHN0eWxlPSJzdHJva2U6IzE4MTgxODtzdHJva2Utd2lkdGg6MTsiLz48bGluZSBzdHlsZT0ic3Ryb2tlOiMxODE4MTg7c3Ryb2tlLXdpZHRoOjE7IiB4MT0iMzU2IiB4Mj0iNzcwLjUiIHkxPSIxNjQzLjEzMjgiIHkyPSIxNjQzLjEzMjgiLz48dGV4dCBmaWxsPSIjMDAwMDAwIiBmb250LWZhbWlseT0ic2Fucy1zZXJpZiIgZm9udC1zaXplPSIxMyIgbGVuZ3RoQWRqdXN0PSJzcGFjaW5nIiB0ZXh0TGVuZ3RoPSI3MS41IiB4PSIzNjMiIHk9IjE2MzkuNTA3OCI+U2VuZCByZXZpZXc8L3RleHQ+PC9nPjxnIGNsYXNzPSJtZXNzYWdlIiBkYXRhLXBhcnRpY2lwYW50LTE9IkJhY2tlbmQiIGRhdGEtcGFydGljaXBhbnQtMj0iREIiPjxwb2x5Z29uIGZpbGw9IiMxODE4MTgiIHBvaW50cz0iMTEwNywxNjY3LjA0NjksMTExNywxNjcxLjA0NjksMTEwNywxNjc1LjA0NjksMTExMSwxNjcxLjA0NjkiIHN0eWxlPSJzdHJva2U6IzE4MTgxODtzdHJva2Utd2lkdGg6MTsiLz48bGluZSBzdHlsZT0ic3Ryb2tlOiMxODE4MTg7c3Ryb2tlLXdpZHRoOjE7IiB4MT0iNzc2LjUiIHgyPSIxMTEzIiB5MT0iMTY3MS4wNDY5IiB5Mj0iMTY3MS4wNDY5Ii8+PHRleHQgZmlsbD0iIzAwMDAwMCIgZm9udC1mYW1pbHk9InNhbnMtc2VyaWYiIGZvbnQtc2l6ZT0iMTMiIGxlbmd0aEFkanVzdD0ic3BhY2luZyIgdGV4dExlbmd0aD0iNzEuNSIgeD0iNzgzLjUiIHk9IjE2NjcuNDIxOSI+U2F2ZSByZXZpZXc8L3RleHQ+PC9nPjxnIGNsYXNzPSJtZXNzYWdlIiBkYXRhLXBhcnRpY2lwYW50LTE9IkRCIiBkYXRhLXBhcnRpY2lwYW50LTI9IkJhY2tlbmQiPjxwb2x5Z29uIGZpbGw9IiMxODE4MTgiIHBvaW50cz0iNzg3LjUsMTY5NC45NjA5LDc3Ny41LDE2OTguOTYwOSw3ODcuNSwxNzAyLjk2MDksNzgzLjUsMTY5OC45NjA5IiBzdHlsZT0ic3Ryb2tlOiMxODE4MTg7c3Ryb2tlLXdpZHRoOjE7Ii8+PGxpbmUgc3R5bGU9InN0cm9rZTojMTgxODE4O3N0cm9rZS13aWR0aDoxOyIgeDE9Ijc4MS41IiB4Mj0iMTExOCIgeTE9IjE2OTguOTYwOSIgeTI9IjE2OTguOTYwOSIvPjx0ZXh0IGZpbGw9IiMwMDAwMDAiIGZvbnQtZmFtaWx5PSJzYW5zLXNlcmlmIiBmb250LXNpemU9IjEzIiBsZW5ndGhBZGp1c3Q9InNwYWNpbmciIHRleHRMZW5ndGg9IjE5LjUiIHg9Ijc5My41IiB5PSIxNjk1LjMzNTkiPk8gSzwvdGV4dD48L2c+PGcgY2xhc3M9Im1lc3NhZ2UiIGRhdGEtcGFydGljaXBhbnQtMT0iQmFja2VuZCIgZGF0YS1wYXJ0aWNpcGFudC0yPSJVSSI+PHBvbHlnb24gZmlsbD0iIzE4MTgxOCIgcG9pbnRzPSIzNjcsMTcyMi44NzUsMzU3LDE3MjYuODc1LDM2NywxNzMwLjg3NSwzNjMsMTcyNi44NzUiIHN0eWxlPSJzdHJva2U6IzE4MTgxODtzdHJva2Utd2lkdGg6MTsiLz48bGluZSBzdHlsZT0ic3Ryb2tlOiMxODE4MTg7c3Ryb2tlLXdpZHRoOjE7IiB4MT0iMzYxIiB4Mj0iNzc1LjUiIHkxPSIxNzI2Ljg3NSIgeTI9IjE3MjYuODc1Ii8+PHRleHQgZmlsbD0iIzAwMDAwMCIgZm9udC1mYW1pbHk9InNhbnMtc2VyaWYiIGZvbnQtc2l6ZT0iMTMiIGxlbmd0aEFkanVzdD0ic3BhY2luZyIgdGV4dExlbmd0aD0iMTQzIiB4PSIzNzMiIHk9IjE3MjMuMjUiPlJldHVybiB1cGRhdGVkIHJldmlld3M8L3RleHQ+PC9nPjxnIGNsYXNzPSJtZXNzYWdlIiBkYXRhLXBhcnRpY2lwYW50LTE9IlVJIiBkYXRhLXBhcnRpY2lwYW50LTI9IlVzZXIiPjxwb2x5Z29uIGZpbGw9IiMxODE4MTgiIHBvaW50cz0iNTgsMTc1MC43ODkxLDQ4LDE3NTQuNzg5MSw1OCwxNzU4Ljc4OTEsNTQsMTc1NC43ODkxIiBzdHlsZT0ic3Ryb2tlOiMxODE4MTg7c3Ryb2tlLXdpZHRoOjE7Ii8+PGxpbmUgc3R5bGU9InN0cm9rZTojMTgxODE4O3N0cm9rZS13aWR0aDoxOyIgeDE9IjUyIiB4Mj0iMzU1IiB5MT0iMTc1NC43ODkxIiB5Mj0iMTc1NC43ODkxIi8+PHRleHQgZmlsbD0iIzAwMDAwMCIgZm9udC1mYW1pbHk9InNhbnMtc2VyaWYiIGZvbnQtc2l6ZT0iMTMiIGxlbmd0aEFkanVzdD0ic3BhY2luZyIgdGV4dExlbmd0aD0iMTMwIiB4PSI2NCIgeT0iMTc1MS4xNjQxIj5TaG93IHVwZGF0ZWQgcmV2aWV3czwvdGV4dD48L2c+PCEtLVNSQz1bYkxOUlJqR200N3RGTG1tSEdncmVzVlRBMnpmVVcwZkdMeGpqNEg4bDlmeERjWmZzWTlzTTVVQUwzLTBKLUhCNk93VlRQNUNYTGpnUnZzSmNkQmRQQXd5SGJsWWpITENXZDJmSERnQTJHdFdaQVpndG5nMjdsSWs3M0pvN2NRb0tzU3lvS05aUkczWENGemNHUFJMZWwyZktCT283Vjg1YVd3bHBwc1JsaFF0bVc0M29hc3FSVG0zWFF6Y005SmdsaDNkV003REg0a1F6QkhLVEI1TGZzbGVXMVNuMUU3QktUdF9zbE14R0VKV01uR3FRb1BacVV5MVp6bDREcEVSZFowWF9DWWN5LTI4U0dseDFjakFVN2lGQ1EtNE9TN2dTUFRDZjFDT0dBQzVoUlV6V0VpcXUxT1NsWUdTU21LTUR2VzZKcUhiUEVEMEhsNFBWaEU2bzhJQkFiQXBEOUdINXdrbjlGaWVVVzhDU0tITFNoU0tjSGhYSlZXcWJXbThwcGowYTljWVN0OGJNbktxRmJ4b2R6MTFhNlJ3QTFZS1FodUhzTU1WZ0k1dUJoSVhEMjFET1lia0NqSVBCcHlpMlZUaU9TNnJISzJNc1ZKMkZNS2w0RXNERnR0OURqQk1iM0NYM0hHdXlITTlucjJBbnlLUTUxSWp0NEVtSFJwQTRoODJYWl9xVFhJVGhmMkdtVzI5R0xPU0FFR24tTHl3eEx2ZEdGWHU4dFEyR2NzSjhXNXdGZzZQNEE3MjhtUzFYWEFrUUNvWWFIN2N5V1BMMkJNQ3JNcjlia2lVNl9hLWlNUWNjV2ZPVnByMUplcDh0UVQ2MWlKdzY3ZVBDdFJTOGEtb0ljYkZxR2thZThxWGFKQ0Z5N09HZk80anVpTUxDUGxJcDNIdEF2RnhtNWtRbnVNQ3hULTM3bjJiM0FPV1FNMjM3bG5TT0FWT1B6WGZldGpZZ3piMDlxbWZERlZRYktpeEhBZGIwUl9WRHNLRXBvOVlIekFKVTNEbmxKS1hHYlZwcGF1eWY3QVJaZDlMck1DeFZWc00zcmJUdTN1VmZxV2dnUWl4Ym85Xy0yOUgyTEx3NERsZ1Bubkp1aTR2TWo4djVNOWlXd2hnbmpxOF9vVERpWFNEUEVlbUpqZ1RNZTVwU2ljN1M4Z1FCVVFzU3laMVhScGkzclpOUWxCVmRYamI4TlRHNzNURm1nMGpjbVNrWUpYMFRFaF9GQ1loMm9QYktWaEIwaHFZdDNpX2F3RDlCS3hMSmpMTEE1c05tcHdfVk9NWDNuUGFIazZBRGJPMWRyOVNMOE5YVmpNeENIeUZYYW16N0RzVTRtWEpvcGZIZF9uWnVLVnJxYkw5eGF0X05RZi1LbkpHeXQxUm4tR3VKSWh3ejE4Wi0wY3lMdGhkbnZSZjQ3SkI3WnZvOEhldlRRanRxS0RVYTFSYnBod3JlQ2lEX1dlSDk5ZTl5dlV3a195eE5Tb0JDakI4MTcteGVQMW9sUFJBREJnSGE2LVJ3MGp4ajkzWnJRNG9WbEFVcEl0YzAtMGkwXS0tPjwvZz48L3N2Zz4=;" parent="1" vertex="1">
            <mxGeometry x="-850" y="-1950" width="1204" height="1852" as="geometry" />
          </mxCell>
        </UserObject>
      </root>
    </mxGraphModel>
  </diagram>
</mxfile>
